<?xml version="1.0" encoding="UTF-8"?>
<svg version="1.1" xmlns="http://www.w3.org/2000/svg" width="399" height="399">
<path d="M0 0 C131.67 0 263.34 0 399 0 C399 131.67 399 263.34 399 399 C267.33 399 135.66 399 0 399 C0 267.33 0 135.66 0 0 Z " fill="#FEFEFE" transform="translate(0,0)"/>
<path d="M0 0 C1.84008789 0.92041016 1.84008789 0.92041016 3.72265625 2.0390625 C4.42712891 2.45542969 5.13160156 2.87179688 5.85742188 3.30078125 C6.58509766 3.73777344 7.31277344 4.17476563 8.0625 4.625 C8.76310547 5.03878906 9.46371094 5.45257813 10.18554688 5.87890625 C11.6226153 6.73309868 13.04536288 7.61187402 14.45227337 8.51487637 C16.97370706 10.07826511 16.97370706 10.07826511 19.81345081 11.06704044 C23.3598944 12.65130055 25.44707589 14.0441489 28 17 C30.17601254 23.66275474 29.44610257 31.17093281 29.34057617 38.08178711 C29.34733805 40.26015156 29.35893476 42.43850558 29.375 44.61682129 C29.40487559 50.52402512 29.36713186 56.42909037 29.31726241 62.33608699 C29.27661999 68.51142724 29.29813604 74.68654283 29.31306458 80.86195374 C29.33187875 92.5528728 29.2947751 104.24291939 29.23759204 115.93368679 C29.17520696 129.24442371 29.17514188 142.55481843 29.18031728 155.86569965 C29.18956578 183.24410985 29.12053367 210.62187533 29 238 C29.9075 237.34 30.815 236.68 31.75 236 C35 234 35 234 39 234 C39 234.66 39 235.32 39 236 C38.113125 236.226875 37.22625 236.45375 36.3125 236.6875 C31.52603147 238.58402527 29.02642536 241.66253665 25.9375 245.6875 C22.86047602 249.36007701 20.99396722 249.85090492 16.25 250.5625 C11.50852759 250.45634763 9.05674742 248.07568917 5.7578125 244.88671875 C3.70741319 242.68595682 1.82676713 240.38884933 0 238 C-3.21373759 236.3931312 -6.51374828 236.53381518 -10 237 C-14.29996556 239.51705301 -17.27761954 243.50252092 -20.44921875 247.29296875 C-22.23890913 249.26298058 -23.32263991 249.90516959 -25.953125 250.2734375 C-30.23635344 250.46283196 -32.42577589 250.36750343 -36.125 248 C-37.81198072 246.39621285 -39.1953799 244.7428211 -40.60546875 242.88671875 C-44.47913912 237.85863998 -44.47913912 237.85863998 -50.25 235.75 C-55.18594871 236.1323024 -57.82758836 239.42221475 -60.9375 242.9375 C-61.86923607 244.04580228 -62.79535185 245.15886232 -63.71484375 246.27734375 C-65.90678512 248.88893886 -66.64559417 249.75272259 -69.8828125 250.34375 C-74.83307355 250.68871593 -77.50908713 250.10213102 -81.3125 246.8125 C-84.12367449 244.05721367 -86.60802109 241.12797242 -89 238 C-92.47400233 236.26299884 -95.34326768 235.82742798 -99 237 C-101.92800363 239.63823074 -104.29553481 242.35438609 -106.80078125 245.3984375 C-108.98326809 247.98020702 -110.62554881 249.72297883 -114.015625 250.40625 C-118.48246842 250.59367 -121.25615116 250.3018646 -124.75 247.375 C-127.7434582 244.45099558 -130.36098497 241.24221846 -133 238 C-136.2251574 236.3874213 -139.51188907 236.41188827 -143 237 C-145.70800597 239.03949126 -145.70800597 239.03949126 -148 242 C-149.21683813 243.26200462 -150.44659691 244.51165021 -151.6875 245.75 C-152.26886719 246.34296875 -152.85023438 246.9359375 -153.44921875 247.546875 C-156.26299721 250.18346338 -158.95153923 250.51518567 -162.77734375 250.48046875 C-167.16982166 249.53095243 -169.96600021 246.13124337 -173 243 C-173.52078125 242.49082031 -174.0415625 241.98164063 -174.578125 241.45703125 C-175.73621262 240.3222385 -176.87073836 239.16348169 -178 238 C-179.20232459 236.5870293 -179.20232459 236.5870293 -182.6875 236.625 C-186.56189905 236.68715613 -188.68385872 237.68829698 -191.5546875 240.42578125 C-193.67912372 242.73969421 -195.7278369 245.10431445 -197.703125 247.546875 C-199.32693307 249.3663226 -200.51831729 249.92249912 -202.91796875 250.30859375 C-207.42177145 250.56440354 -210.22688792 250.34060863 -213.75 247.375 C-215.88916195 245.29976703 -217.73793192 243.10166553 -219.5625 240.75 C-222.26376214 237.70242221 -224.08703759 236.90999126 -228 236 C-228 235.34 -228 234.68 -228 234 C-222.125 234.875 -222.125 234.875 -221 236 C-220.67 209.27 -220.34 182.54 -220 155 C-210 150 -210 150 -200 146 C-199.67 126.53 -199.34 107.06 -199 87 C-191.61885539 83.3094277 -184.31659851 79.81274088 -176.75 76.5625 C-175.70070312 76.09134766 -174.65140625 75.62019531 -173.5703125 75.13476562 C-165.93107125 71.87116572 -165.93107125 71.87116572 -161.640625 72.46484375 C-158.67324023 74.18996537 -155.84880646 76.08664816 -153 78 C-153.05760498 77.03288086 -153.11520996 76.06576172 -153.17456055 75.06933594 C-153.37611201 71.4250019 -153.50077348 67.78113766 -153.60424805 64.1328125 C-153.65902829 62.5649088 -153.73369596 60.99755262 -153.82983398 59.43164062 C-154.28715824 51.78185312 -154.60540295 45.0210354 -149.5965271 38.80496216 C-144.16140495 32.96211562 -137.82389582 29.08456686 -130.5625 25.875 C-129.59634766 25.42125 -128.63019531 24.9675 -127.63476562 24.5 C-125.86204587 23.66953669 -124.08411857 22.85001245 -122.29907227 22.04638672 C-120.17235209 21.07844335 -118.08267645 20.058846 -116 19 C-111.77130676 23.1130147 -107.76044744 27.34293494 -103.90234375 31.8046875 C-101.68281488 34.36603293 -99.44119144 36.90615378 -97.1875 39.4375 C-96.43855469 40.28183594 -95.68960938 41.12617187 -94.91796875 41.99609375 C-93.15581429 44.06248234 -93.15581429 44.06248234 -91 45 C-91 51.27 -91 57.54 -91 64 C-88.03 64.99 -88.03 64.99 -85 66 C-78.73 68.64 -72.46 71.28 -66 74 C-65.67 58.16 -65.34 42.32 -65 26 C-55.06444397 21.36340719 -45.13185169 16.82312562 -35.0625 12.5 C-32.44106023 11.37319865 -29.81997039 10.24558838 -27.19921875 9.1171875 C-26.56969299 8.84635345 -25.94016724 8.57551941 -25.29156494 8.29647827 C-21.72501589 6.75800732 -18.17645432 5.18660456 -14.64453125 3.5703125 C-13.90259521 3.23322266 -13.16065918 2.89613281 -12.39624023 2.54882812 C-10.53889562 1.69991014 -8.68712845 0.83881701 -6.8359375 -0.0234375 C-3.73920988 -1.08980376 -2.99256672 -1.00238011 0 0 Z " fill="#11324B" transform="translate(295,66)"/>
<path d="M0 0 C2.91389688 0.61425703 5.16655703 1.52018731 7.72265625 3.0390625 C8.42712891 3.45542969 9.13160156 3.87179688 9.85742188 4.30078125 C10.58509766 4.73777344 11.31277344 5.17476563 12.0625 5.625 C12.76310547 6.03878906 13.46371094 6.45257813 14.18554688 6.87890625 C15.62220396 7.73285418 17.04482328 8.61089112 18.45191479 9.51272488 C20.97576263 11.07668327 20.97576263 11.07668327 23.81667805 12.08640385 C27.33488823 13.6749853 29.4491836 15.07578311 32 18 C34.14039486 24.48373197 33.38609801 31.8039525 33.2487793 38.53100586 C33.24567529 40.65023639 33.24742049 42.76947874 33.25364685 44.88870239 C33.25680178 50.63501095 33.1921581 56.37879131 33.11533332 62.12451243 C33.0465444 68.13150745 33.04010549 74.13856118 33.02705383 80.14588928 C32.9928711 91.51828203 32.90261384 102.88951089 32.79220945 114.26139122 C32.66923575 127.20914732 32.60877198 140.15695917 32.55355966 153.10515392 C32.43859661 179.73741443 32.24512946 206.36864199 32 233 C31.67 233 31.34 233 31 233 C31 219.14 31 205.28 31 191 C-50.18 191.33 -131.36 191.66 -215 192 C-215 191.34 -215 190.68 -215 190 C-133.82 190 -52.64 190 31 190 C31 187.36 31 184.72 31 182 C9.55 182 -11.9 182 -34 182 C-34 181.34 -34 180.68 -34 180 C-35.32 180 -36.64 180 -38 180 C-38 180.66 -38 181.32 -38 182 C-78.26 182 -118.52 182 -160 182 C-160 181.67 -160 181.34 -160 181 C-152.08 181 -144.16 181 -136 181 C-136 164.83 -136 148.66 -136 132 C-122 126 -122 126 -120 126 C-120 144.15 -120 162.3 -120 181 C-117.03 181 -114.06 181 -111 181 C-111 158.56 -111 136.12 -111 113 C-112.98 113.33 -114.96 113.66 -117 114 C-119 112 -119 112 -119.1953125 108.5234375 C-119.18201493 107.14049032 -119.15816232 105.75761346 -119.125 104.375 C-119.11597656 103.66859375 -119.10695313 102.9621875 -119.09765625 102.234375 C-119.07407603 100.48943902 -119.03820461 98.74467705 -119 97 C-113.25 97.875 -113.25 97.875 -111 99 C-111 102.63 -111 106.26 -111 110 C-110.34 110 -109.68 110 -109 110 C-108.319375 110.721875 -107.63875 111.44375 -106.9375 112.1875 C-104.07062189 115.19049102 -100.80083138 116.94546122 -97.14453125 118.85546875 C-95 120 -95 120 -92.1875 121.9375 C-91.465625 122.288125 -90.74375 122.63875 -90 123 C-87.69712207 122.30859649 -87.69712207 122.30859649 -86 121 C-86 122.98 -86 124.96 -86 127 C-85.01 127 -84.02 127 -83 127 C-83 109.84 -83 92.68 -83 75 C-80.03 75.99 -77.06 76.98 -74 78 C-73.9845388 79.04902748 -73.9845388 79.04902748 -73.96876526 80.11924744 C-73.87094968 86.69713663 -73.76845843 93.2749342 -73.66066074 99.85266781 C-73.60540198 103.23467122 -73.55197744 106.61668324 -73.50268555 109.9987793 C-73.44599054 113.88339427 -73.38142415 117.76785878 -73.31640625 121.65234375 C-73.29133751 123.48199928 -73.29133751 123.48199928 -73.26576233 125.34861755 C-73.24581711 126.46970413 -73.22587189 127.59079071 -73.20532227 128.74584961 C-73.18977798 129.73846298 -73.1742337 130.73107635 -73.15821838 131.75376892 C-73.24881556 133.96974297 -73.24881556 133.96974297 -72 135 C-71.67 116.85 -71.34 98.7 -71 80 C-62 83 -62 83 -61 84 C-60.90470388 87.01350238 -60.87448096 90.00404106 -60.88647461 93.01782227 C-60.88632858 93.96406464 -60.88618256 94.91030701 -60.8860321 95.88522339 C-60.88673164 99.02897392 -60.89452591 102.17266601 -60.90234375 105.31640625 C-60.90420779 107.48974068 -60.90563176 109.66307552 -60.90663147 111.83641052 C-60.91045779 117.56901195 -60.92028903 123.30158823 -60.93133545 129.03417969 C-60.94154713 134.87890279 -60.94612857 140.72362993 -60.95117188 146.56835938 C-60.9619112 158.045584 -60.97898898 169.52278991 -61 181 C-60.34 181 -59.68 181 -59 181 C-59 149.65 -59 118.3 -59 86 C-58.34 85.67 -57.68 85.34 -57 85 C-54.36 86.32 -51.72 87.64 -49 89 C-49 119.36 -49 149.72 -49 181 C-48.01 181 -47.02 181 -46 181 C-46 180.34 -46 179.68 -46 179 C-42.37 177.35 -38.74 175.7 -35 174 C-34.67 163.44 -34.34 152.88 -34 142 C-38.455 143.98 -38.455 143.98 -43 146 C-43.33 152.93 -43.66 159.86 -44 167 C-44.66 167 -45.32 167 -46 167 C-46 158.75 -46 150.5 -46 142 C-38 138 -38 138 -34 138 C-34 127.11 -34 116.22 -34 105 C-36.31 105.99 -38.62 106.98 -41 108 C-41.99 108 -42.98 108 -44 108 C-44 115.26 -44 122.52 -44 130 C-44.66 130 -45.32 130 -46 130 C-46 121.75 -46 113.5 -46 105 C-36 100 -36 100 -34 100 C-34 89.11 -34 78.22 -34 67 C-37.96 68.98 -37.96 68.98 -42 71 C-42.66 71 -43.32 71 -44 71 C-44 78.26 -44 85.52 -44 93 C-44.66 93 -45.32 93 -46 93 C-46.00257813 92.31292969 -46.00515625 91.62585938 -46.0078125 90.91796875 C-46.12619114 88.1597464 -46.31449537 85.67734829 -47 83 C-49.88679844 80.76113268 -49.88679844 80.76113268 -53 80 C-53 76.7 -53 73.4 -53 70 C-47.06 67.36 -41.12 64.72 -35 62 C-34.67 52.1 -34.34 42.2 -34 32 C-36.31 32.99 -38.62 33.98 -41 35 C-41.99 35 -42.98 35 -44 35 C-44 41.6 -44 48.2 -44 55 C-51 59 -51 59 -54 59 C-54 51.08 -54 43.16 -54 35 C-47.8681556 31.9340778 -41.82702799 28.95788047 -35.54296875 26.265625 C-34.79211502 25.94213074 -34.04126129 25.61863647 -33.26765442 25.28533936 C-31.70131007 24.61171084 -30.13430407 23.9396188 -28.56665039 23.26904297 C-26.17277989 22.24369505 -23.78264085 21.20996884 -21.39257812 20.17578125 C-19.85959328 19.51772044 -18.32639757 18.86015058 -16.79296875 18.203125 C-16.08456345 17.89586487 -15.37615814 17.58860474 -14.64628601 17.27203369 C-11.12189878 15.77328918 -7.79580478 14.56534242 -4 14 C-4 15.65 -4 17.3 -4 19 C-5.76755526 19.84026396 -7.53917263 20.67198722 -9.3125 21.5 C-10.29863281 21.9640625 -11.28476562 22.428125 -12.30078125 22.90625 C-15 24 -15 24 -18 24 C-17.97381592 24.59014893 -17.94763184 25.18029785 -17.9206543 25.78833008 C-17.81670776 28.46278245 -17.7516872 31.13681065 -17.6875 33.8125 C-17.6246582 35.2056543 -17.6246582 35.2056543 -17.56054688 36.62695312 C-17.51453321 39.17611035 -17.52221213 41.49463949 -18 44 C-20.44962714 46.18588262 -21.72491771 47 -25 47 C-25 50.63 -25 54.26 -25 58 C-23.73542969 57.4225 -22.47085938 56.845 -21.16796875 56.25 C-19.507945 55.49970678 -17.84778144 54.74972282 -16.1875 54 C-14.93743164 53.42765625 -14.93743164 53.42765625 -13.66210938 52.84375 C-12.85966797 52.4828125 -12.05722656 52.121875 -11.23046875 51.75 C-10.49207764 51.41484375 -9.75368652 51.0796875 -8.99291992 50.734375 C-7 50 -7 50 -4 50 C-4 51.65 -4 53.3 -4 55 C-5.95649397 55.83764268 -7.91525556 56.66999059 -9.875 57.5 C-10.96554687 57.9640625 -12.05609375 58.428125 -13.1796875 58.90625 C-16 60 -16 60 -18 60 C-18 67.26 -18 74.52 -18 82 C-21.465 82.99 -21.465 82.99 -25 84 C-25 87.63 -25 91.26 -25 95 C-23.65164063 94.4225 -22.30328125 93.845 -20.9140625 93.25 C-19.15112151 92.49981234 -17.3880963 91.74982257 -15.625 91 C-14.73554688 90.6184375 -13.84609375 90.236875 -12.9296875 89.84375 C-12.07890625 89.4828125 -11.228125 89.121875 -10.3515625 88.75 C-9.17327881 88.24726563 -9.17327881 88.24726563 -7.97119141 87.734375 C-6 87 -6 87 -4 87 C-4 88.65 -4 90.3 -4 92 C-5.76755526 92.84026396 -7.53917263 93.67198722 -9.3125 94.5 C-10.29863281 94.9640625 -11.28476562 95.428125 -12.30078125 95.90625 C-15 97 -15 97 -18 97 C-18 104.26 -18 111.52 -18 119 C-20.97 120.485 -20.97 120.485 -24 122 C-24.93597311 124.70733421 -24.93597311 124.70733421 -24.875 127.6875 C-24.93300781 129.17830078 -24.93300781 129.17830078 -24.9921875 130.69921875 C-24.99476563 131.45847656 -24.99734375 132.21773437 -25 133 C-23.81921875 132.4225 -22.6384375 131.845 -21.421875 131.25 C-19.86477961 130.49959258 -18.30747704 129.74961497 -16.75 129 C-15.97269531 128.6184375 -15.19539062 128.236875 -14.39453125 127.84375 C-13.64042969 127.4828125 -12.88632812 127.121875 -12.109375 126.75 C-11.07248535 126.24726563 -11.07248535 126.24726563 -10.01464844 125.734375 C-8 125 -8 125 -4 125 C-4.16015625 127.32421875 -4.16015625 127.32421875 -5 130 C-7.43359375 131.58203125 -7.43359375 131.58203125 -10.4375 132.8125 C-11.92056641 133.44091797 -11.92056641 133.44091797 -13.43359375 134.08203125 C-16 135 -16 135 -18 135 C-18 141.93 -18 148.86 -18 156 C-19.98 156.99 -21.96 157.98 -24 159 C-24.93597311 161.70733421 -24.93597311 161.70733421 -24.875 164.6875 C-24.93300781 166.17830078 -24.93300781 166.17830078 -24.9921875 167.69921875 C-24.99476563 168.45847656 -24.99734375 169.21773437 -25 170 C-23.81921875 169.4225 -22.6384375 168.845 -21.421875 168.25 C-19.86477961 167.49959258 -18.30747704 166.74961497 -16.75 166 C-15.97269531 165.6184375 -15.19539062 165.236875 -14.39453125 164.84375 C-13.26337891 164.30234375 -13.26337891 164.30234375 -12.109375 163.75 C-11.41811523 163.41484375 -10.72685547 163.0796875 -10.01464844 162.734375 C-8 162 -8 162 -4 162 C-4.23632812 164.37329102 -4.23632812 164.37329102 -5 167 C-6.84179688 168.20678711 -6.84179688 168.20678711 -9.21875 169.02734375 C-10.06824219 169.34509766 -10.91773438 169.66285156 -11.79296875 169.99023438 C-13.59644182 170.62131983 -15.40113442 171.24893102 -17.20703125 171.87304688 C-18.05652344 172.19208984 -18.90601563 172.51113281 -19.78125 172.83984375 C-20.9578418 173.24771118 -20.9578418 173.24771118 -22.15820312 173.66381836 C-24.75824539 175.22124176 -24.75824539 175.22124176 -25 181 C-16.09 181 -7.18 181 2 181 C2 121.93 2 62.86 2 2 C1.34 2 0.68 2 0 2 C0 1.34 0 0.68 0 0 Z " fill="#06294A" transform="translate(291,65)"/>
<path d="M0 0 C80.52 0 161.04 0 244 0 C244 2.97 244 5.94 244 9 C236.08 9 228.16 9 220 9 C220 9.66 220 10.32 220 11 C227.92 11 235.84 11 244 11 C244.16105863 16.73164209 244.30025414 22.45539431 244.38452148 28.1875 C244.41965164 30.13536214 244.46736833 32.08304063 244.52807617 34.03027344 C244.61332934 36.83574743 244.65276045 39.63877639 244.68359375 42.4453125 C244.71972275 43.31116974 244.75585175 44.17702698 244.79307556 45.06912231 C244.79537305 48.63408564 244.73736023 51.0300585 242.53567505 53.9262085 C239.1175504 57.05000462 237.79912679 58 233 58 C232.94392578 56.22496094 232.94392578 56.22496094 232.88671875 54.4140625 C232.44858264 43.06813789 231.84211117 33.43739472 225 24 C225 23.34 225 22.68 225 22 C224.195625 21.62875 224.195625 21.62875 223.375 21.25 C221 20 221 20 218.125 18 C210.87624793 13.36079867 203.39605856 13.08557778 195 14 C191.32134594 15.21973866 188.22922983 16.87388494 185 19 C184.071875 19.598125 183.14375 20.19625 182.1875 20.8125 C175.65385167 27.34614833 173.08554248 34.9538127 172 44 C170.80375 43.9175 169.6075 43.835 168.375 43.75 C162.43691123 43.76047282 159.29709444 46.75930097 155.125 50.75 C154.42375 51.4925 153.7225 52.235 153 53 C152.96132813 51.67548828 152.96132813 51.67548828 152.921875 50.32421875 C152.34336038 38.08337527 150.24149532 28.51667216 141 20 C133.04577637 13.83141841 124.82751461 12.84075014 115 14 C105.42514194 16.95215436 99.78306575 22.29173843 94.94921875 30.86328125 C92.11266564 37.14133956 92.27591218 44.22588038 92 51 C91.51789063 50.57847656 91.03578125 50.15695312 90.5390625 49.72265625 C89.90742188 49.17480469 89.27578125 48.62695312 88.625 48.0625 C87.99851562 47.51722656 87.37203125 46.97195313 86.7265625 46.41015625 C83.83320583 44.0470301 82.03804466 43.88517079 78.375 43.9375 C77.55773437 43.94652344 76.74046875 43.95554687 75.8984375 43.96484375 C75.27195312 43.97644531 74.64546875 43.98804688 74 44 C73.85304688 43.24976563 73.70609375 42.49953125 73.5546875 41.7265625 C71.48162483 32.2667248 68.67342783 24.17333465 60.4375 18.5 C52.50951083 13.63863053 45.11319322 13.08400725 36 14 C27.25033095 16.73215472 21.95822456 22.19859499 17.11328125 29.7421875 C14.0481662 35.95845591 13.62284651 42.14753844 13.375 48.9375 C13.31699219 50.24944336 13.31699219 50.24944336 13.2578125 51.58789062 C13.1643893 53.72494631 13.08114602 55.86244294 13 58 C7.76573595 57.13345796 5.13613579 55.08718735 1.36987305 51.40722656 C-0.66701004 47.82788826 -0.3694468 44.30039502 -0.29296875 40.296875 C-0.28872391 39.45908508 -0.28447906 38.62129517 -0.28010559 37.75811768 C-0.26334408 35.08841498 -0.22569711 32.41947363 -0.1875 29.75 C-0.17244987 27.93751092 -0.15876203 26.12500998 -0.14648438 24.3125 C-0.11600342 19.87447238 -0.05727931 15.43808601 0 11 C9.24 11 18.48 11 28 11 C28 10.34 28 9.68 28 9 C18.76 9 9.52 9 0 9 C0 6.03 0 3.06 0 0 Z " fill="#EEF1F3" transform="translate(77,257)"/>
<path d="M0 0 C0 22.44 0 44.88 0 68 C-2.97 68 -5.94 68 -9 68 C-9 49.85 -9 31.7 -9 13 C-13.62 14.98 -18.24 16.96 -23 19 C-23.66 19 -24.32 19 -25 19 C-25 35.17 -25 51.34 -25 68 C23.51 68.495 23.51 68.495 73 69 C73 68.34 73 67.68 73 67 C74.32 67 75.64 67 77 67 C77 67.66 77 68.32 77 69 C98.45 69 119.9 69 142 69 C142 71.64 142 74.28 142 77 C61.15 77 -19.7 77 -103 77 C-103 74.36 -103 71.72 -103 69 C-100.69 69 -98.38 69 -96 69 C-96.33 68.67 -96.66 68.34 -97 68 C-98.98 68 -100.96 68 -103 68 C-103 60.08 -103 52.16 -103 44 C-91.75845697 38.37922849 -91.75845697 38.37922849 -87.19921875 36.44921875 C-85.63820435 35.7847876 -85.63820435 35.7847876 -84.0456543 35.10693359 C-82.38336792 34.40431396 -82.38336792 34.40431396 -80.6875 33.6875 C-78.20806188 32.63214168 -75.72889426 31.57616478 -73.25 30.51953125 C-72.59654099 30.24133545 -71.94308197 29.96313965 -71.26982117 29.67651367 C-62.89497594 26.10865436 -54.54166671 22.49094447 -46.1875 18.875 C-45.39994324 18.53422424 -44.61238647 18.19344849 -43.80096436 17.84234619 C-33.96907318 13.58794581 -24.1387389 9.32994059 -14.3125 5.0625 C-13.37494873 4.65563965 -12.43739746 4.2487793 -11.47143555 3.82958984 C-10.63136963 3.46430176 -9.79130371 3.09901367 -8.92578125 2.72265625 C-8.20817627 2.41078369 -7.49057129 2.09891113 -6.7512207 1.77758789 C-2.74788069 0 -2.74788069 0 0 0 Z " fill="#0C2E4E" transform="translate(180,178)"/>
<path d="M0 0 C2.91389688 0.61425703 5.16655703 1.52018731 7.72265625 3.0390625 C8.42712891 3.45542969 9.13160156 3.87179688 9.85742188 4.30078125 C10.58509766 4.73777344 11.31277344 5.17476563 12.0625 5.625 C12.76310547 6.03878906 13.46371094 6.45257813 14.18554688 6.87890625 C15.62220396 7.73285418 17.04482328 8.61089112 18.45191479 9.51272488 C20.97576263 11.07668327 20.97576263 11.07668327 23.81667805 12.08640385 C27.33488823 13.6749853 29.4491836 15.07578311 32 18 C34.14039486 24.48373197 33.38609801 31.8039525 33.2487793 38.53100586 C33.24567529 40.65023639 33.24742049 42.76947874 33.25364685 44.88870239 C33.25680178 50.63501095 33.1921581 56.37879131 33.11533332 62.12451243 C33.0465444 68.13150745 33.04010549 74.13856118 33.02705383 80.14588928 C32.9928711 91.51828203 32.90261384 102.88951089 32.79220945 114.26139122 C32.66923575 127.20914732 32.60877198 140.15695917 32.55355966 153.10515392 C32.43859661 179.73741443 32.24512946 206.36864199 32 233 C31.67 233 31.34 233 31 233 C31 219.14 31 205.28 31 191 C-50.18 191.33 -131.36 191.66 -215 192 C-215 191.34 -215 190.68 -215 190 C-133.82 190 -52.64 190 31 190 C31 187.36 31 184.72 31 182 C21.1 182 11.2 182 1 182 C1.33 122.6 1.66 63.2 2 2 C1.34 2 0.68 2 0 2 C0 1.34 0 0.68 0 0 Z " fill="#012546" transform="translate(291,65)"/>
<path d="M0 0 C0 58.74 0 117.48 0 178 C-8.58 178 -17.16 178 -26 178 C-26 176.02 -26 174.04 -26 172 C-23.97974095 171.06126309 -21.9587636 170.12407197 -19.9375 169.1875 C-18.75542969 168.63707031 -17.57335937 168.08664063 -16.35546875 167.51953125 C-13.83484301 166.37806045 -11.33664887 165.34567117 -8.75 164.375 C-7.8425 163.92125 -6.935 163.4675 -6 163 C-5.29060738 160.96597923 -5.29060738 160.96597923 -5 159 C-7.04313484 159.7669334 -9.08444372 160.53873202 -11.125 161.3125 C-12.83042969 161.95638672 -12.83042969 161.95638672 -14.5703125 162.61328125 C-18.02154369 163.9534472 -18.02154369 163.9534472 -21.3046875 165.66796875 C-24 167 -24 167 -26 167 C-26 163.37 -26 159.74 -26 156 C-24.02 155.01 -22.04 154.02 -20 153 C-19.67 146.07 -19.34 139.14 -19 132 C-15.64713542 130.56770833 -12.29427083 129.13541667 -8.94140625 127.703125 C-5.87248249 126.32449066 -5.87248249 126.32449066 -5.08984375 123.796875 C-5.04537109 122.90742188 -5.04537109 122.90742188 -5 122 C-7.04313484 122.7669334 -9.08444372 123.53873202 -11.125 124.3125 C-12.83042969 124.95638672 -12.83042969 124.95638672 -14.5703125 125.61328125 C-18.02154369 126.9534472 -18.02154369 126.9534472 -21.3046875 128.66796875 C-24 130 -24 130 -26 130 C-26 126.37 -26 122.74 -26 119 C-24.02 118.01 -22.04 117.02 -20 116 C-19.67 108.74 -19.34 101.48 -19 94 C-7.25 89 -7.25 89 -5 89 C-5 87.35 -5 85.7 -5 84 C-5.52956299 84.24234375 -6.05912598 84.4846875 -6.60473633 84.734375 C-9.00471692 85.828743 -11.40851907 86.9144495 -13.8125 88 C-14.64587891 88.3815625 -15.47925781 88.763125 -16.33789062 89.15625 C-17.14033203 89.5171875 -17.94277344 89.878125 -18.76953125 90.25 C-19.50792236 90.58515625 -20.24631348 90.9203125 -21.00708008 91.265625 C-23 92 -23 92 -26 92 C-26 88.37 -26 84.74 -26 81 C-22.535 80.01 -22.535 80.01 -19 79 C-19 71.74 -19 64.48 -19 57 C-7.25 52 -7.25 52 -5 52 C-5 50.35 -5 48.7 -5 47 C-5.56509277 47.24234375 -6.13018555 47.4846875 -6.71240234 47.734375 C-9.26503008 48.82663291 -11.81996859 49.91337745 -14.375 51 C-15.26445312 51.3815625 -16.15390625 51.763125 -17.0703125 52.15625 C-18.34648437 52.69765625 -18.34648437 52.69765625 -19.6484375 53.25 C-20.43395996 53.58515625 -21.21948242 53.9203125 -22.02880859 54.265625 C-24 55 -24 55 -26 55 C-26 51.37 -26 47.74 -26 44 C-24.02 43.01 -22.04 42.02 -20 41 C-19.67 34.4 -19.34 27.8 -19 21 C-7.25 16 -7.25 16 -5 16 C-5 14.35 -5 12.7 -5 11 C-6.10734497 11.47457642 -6.10734497 11.47457642 -7.23706055 11.95874023 C-22.82470703 18.63916016 -38.41235352 25.31958008 -54 32 C-54.33 39.92 -54.66 47.84 -55 56 C-52.03 54.68 -49.06 53.36 -46 52 C-45.67 45.4 -45.34 38.8 -45 32 C-38 29 -38 29 -35 29 C-35 38.9 -35 48.8 -35 59 C-45 64 -45 64 -50.0625 65.8125 C-52.28174479 66.65632072 -52.28174479 66.65632072 -54 68 C-55.10722671 70.87325332 -55.05241991 72.85480547 -55 76 C-56.65 75.34 -58.3 74.68 -60 74 C-60 57.83 -60 41.66 -60 25 C-48.75529029 19.37764514 -48.75529029 19.37764514 -44.07421875 17.421875 C-43.03982666 16.98721924 -42.00543457 16.55256348 -40.93969727 16.10473633 C-39.86647217 15.65767334 -38.79324707 15.21061035 -37.6875 14.75 C-35.39817632 13.79098782 -33.1091178 12.83134244 -30.8203125 11.87109375 C-29.68239258 11.39397949 -28.54447266 10.91686523 -27.37207031 10.42529297 C-24.15324348 9.06477233 -20.94571715 7.68126491 -17.7421875 6.28515625 C-16.78094971 5.86717773 -15.81971191 5.44919922 -14.8293457 5.01855469 C-13.02134793 4.23045718 -11.21510894 3.43830908 -9.41088867 2.64160156 C-8.60627197 2.29194336 -7.80165527 1.94228516 -6.97265625 1.58203125 C-6.27406494 1.27499268 -5.57547363 0.9679541 -4.85571289 0.65161133 C-3 0 -3 0 0 0 Z " fill="#F8F9FA" transform="translate(292,68)"/>
<path d="M0 0 C2.97 0.99 5.94 1.98 9 3 C9.0154612 4.04902748 9.0154612 4.04902748 9.03123474 5.11924744 C9.12905032 11.69713663 9.23154157 18.2749342 9.33933926 24.85266781 C9.39459802 28.23467122 9.44802256 31.61668324 9.49731445 34.9987793 C9.55400946 38.88339427 9.61857585 42.76785878 9.68359375 46.65234375 C9.70030624 47.87211411 9.71701874 49.09188446 9.73423767 50.34861755 C9.7641555 52.03024742 9.7641555 52.03024742 9.79467773 53.74584961 C9.81799416 55.23476967 9.81799416 55.23476967 9.84178162 56.75376892 C9.75118444 58.96974297 9.75118444 58.96974297 11 60 C11.09304018 61.47354348 11.11746265 62.95150591 11.11352539 64.42797852 C11.11340454 65.38208618 11.11328369 66.33619385 11.11315918 67.31921387 C11.10804321 68.32891235 11.10292725 69.33861084 11.09765625 70.37890625 C11.09664917 71.30183472 11.09564209 72.22476318 11.09460449 73.17565918 C11.08935494 76.63795201 11.07539381 80.1002272 11.0625 83.5625 C11.041875 91.296875 11.02125 99.03125 11 107 C-18.04 107 -47.08 107 -77 107 C-77 106.67 -77 106.34 -77 106 C-69.08 106 -61.16 106 -53 106 C-53 89.83 -53 73.66 -53 57 C-39 51 -39 51 -37 51 C-37 69.15 -37 87.3 -37 106 C-34.03 106 -31.06 106 -28 106 C-28 83.56 -28 61.12 -28 38 C-30.97 38.495 -30.97 38.495 -34 39 C-36 37 -36 37 -36.1953125 33.5234375 C-36.18201493 32.14049032 -36.15816232 30.75761346 -36.125 29.375 C-36.11597656 28.66859375 -36.10695312 27.9621875 -36.09765625 27.234375 C-36.07407603 25.48943902 -36.03820461 23.74467705 -36 22 C-30.25 22.875 -30.25 22.875 -28 24 C-28 27.63 -28 31.26 -28 35 C-27.34 35 -26.68 35 -26 35 C-25.319375 35.721875 -24.63875 36.44375 -23.9375 37.1875 C-21.07062189 40.19049102 -17.80083138 41.94546122 -14.14453125 43.85546875 C-12 45 -12 45 -9.1875 46.9375 C-8.1046875 47.4634375 -8.1046875 47.4634375 -7 48 C-4.69712207 47.30859649 -4.69712207 47.30859649 -3 46 C-3 47.98 -3 49.96 -3 52 C-2.01 52 -1.02 52 0 52 C0 34.84 0 17.68 0 0 Z " fill="#032748" transform="translate(208,140)"/>
<path d="M0 0 C19.54475309 8.04783951 19.54475309 8.04783951 27.5625 11.4375 C31.7390625 13.2009375 31.7390625 13.2009375 36 15 C36.495 24.405 36.495 24.405 37 34 C37.66 34 38.32 34 39 34 C39.56300359 37.47793733 39.73599214 40.53853699 39 44 C36.44593229 46.95166274 33.36985804 48.70731802 30 50.625 C29.14148438 51.15222656 28.28296875 51.67945313 27.3984375 52.22265625 C25.2829633 53.51544604 23.15315035 54.7713554 21 56 C21.81984375 55.52949219 22.6396875 55.05898437 23.484375 54.57421875 C24.56203125 53.95160156 25.6396875 53.32898438 26.75 52.6875 C27.81734375 52.07261719 28.8846875 51.45773438 29.984375 50.82421875 C32.93973261 49.1106209 32.93973261 49.1106209 35.265625 47.26953125 C37 46 37 46 39 46 C39.05783842 50.29161047 39.0935412 54.58312145 39.125 58.875 C39.14175781 60.09832031 39.15851563 61.32164062 39.17578125 62.58203125 C39.18544922 64.33193359 39.18544922 64.33193359 39.1953125 66.1171875 C39.21102295 67.73536377 39.21102295 67.73536377 39.22705078 69.38623047 C39 72 39 72 37 74 C37.66 74 38.32 74 39 74 C38.98839844 74.85464844 38.97679687 75.70929688 38.96484375 76.58984375 C38.95582031 77.69457031 38.94679687 78.79929687 38.9375 79.9375 C38.92589844 81.03964844 38.91429687 82.14179688 38.90234375 83.27734375 C38.68737429 85.91447634 38.68737429 85.91447634 40 87 C40.14115161 89.67058851 40.04247107 92.32432238 40 95 C39.67 95 39.34 95 39 95 C38.67 93.35 38.34 91.7 38 90 C37.01 90.66 36.02 91.32 35 92 C30.64537494 89.58076385 26.36770876 87.0483977 22.125 84.4375 C21.17882812 83.85871094 20.23265625 83.27992188 19.2578125 82.68359375 C17 81 17 81 16 78 C15.34 78 14.68 78 14 78 C14 74.37 14 70.74 14 67 C11.36 66.34 8.72 65.68 6 65 C6.11397544 67.43847451 6.24070974 69.87513174 6.375 72.3125 C6.4059375 73.00279297 6.436875 73.69308594 6.46875 74.40429688 C6.68124919 78.06990789 6.91933861 79.87900792 9 83 C6.69631264 84.06652192 4.35981813 85.06421005 2 86 C1.34 85.67 0.68 85.34 0 85 C0 56.95 0 28.9 0 0 Z " fill="#344C52" transform="translate(166,97)"/>
<path d="M0 0 C0 59.07 0 118.14 0 179 C-0.33 179 -0.66 179 -1 179 C-1 120.26 -1 61.52 -1 1 C-11.81737072 5.45421147 -22.59474806 9.94480781 -33.3125 14.625 C-35.21438586 15.45452254 -37.11650362 16.28350214 -39.01908875 17.11141968 C-40.73107064 17.85652084 -42.44234739 18.60324162 -44.15356445 19.35009766 C-49.41808258 21.60827687 -54.71224954 23.79677064 -60 26 C-60 42.17 -60 58.34 -60 75 C-58.68 75.66 -57.36 76.32 -56 77 C-56 74.36 -56 71.72 -56 69 C-55.67 69 -55.34 69 -55 69 C-54.99613281 69.92232422 -54.99613281 69.92232422 -54.9921875 70.86328125 C-54.87217945 73.37144958 -54.68225725 75.57991767 -54 78 C-51.09748698 80.16247221 -51.09748698 80.16247221 -48 81 C-48 84.3 -48 87.6 -48 91 C-47.34 91 -46.68 91 -46 91 C-46 83.74 -46 76.48 -46 69 C-38 65 -38 65 -36 65 C-36 75.89 -36 86.78 -36 98 C-46 103 -46 103 -48 103 C-48 111.25 -48 119.5 -48 128 C-47.34 128 -46.68 128 -46 128 C-46 120.74 -46 113.48 -46 106 C-39 103 -39 103 -36 103 C-36 113.89 -36 124.78 -36 136 C-46 140 -46 140 -48 140 C-48 148.25 -48 156.5 -48 165 C-47.34 165 -46.68 165 -46 165 C-46 158.07 -46 151.14 -46 144 C-38 140 -38 140 -36 140 C-36 150.56 -36 161.12 -36 172 C-46 177 -46 177 -48 177 C-48 177.66 -48 178.32 -48 179 C-48.99 179 -49.98 179 -51 179 C-51.33 148.64 -51.66 118.28 -52 87 C-54.64 86.01 -57.28 85.02 -60 84 C-60.33 115.35 -60.66 146.7 -61 179 C-61.66 179 -62.32 179 -63 179 C-63.33 146.99 -63.66 114.98 -64 82 C-66.97 80.68 -69.94 79.36 -73 78 C-73 111.33 -73 144.66 -73 179 C-73.33 179 -73.66 179 -74 179 C-74.01030746 178.42592911 -74.02061493 177.85185822 -74.03123474 177.26039124 C-74.13907434 171.30734338 -74.25368977 165.35445385 -74.37231445 159.40161133 C-74.41573588 157.17736104 -74.45740545 154.95307585 -74.49731445 152.72875977 C-74.55484306 149.53911805 -74.61858684 146.3496532 -74.68359375 143.16015625 C-74.70030624 142.15912369 -74.71701874 141.15809113 -74.73423767 140.12672424 C-74.7641555 138.74540565 -74.7641555 138.74540565 -74.79467773 137.33618164 C-74.81799416 136.11373497 -74.81799416 136.11373497 -74.84178162 134.86659241 C-74.79913863 132.98590881 -74.79913863 132.98590881 -76 132 C-76.09365006 130.2507128 -76.11744438 128.49763746 -76.11352539 126.74584961 C-76.11344986 125.62476303 -76.11337433 124.50367645 -76.11329651 123.34861755 C-76.10813522 122.1288472 -76.10297394 120.90907684 -76.09765625 119.65234375 C-76.0962413 118.41078018 -76.09482635 117.16921661 -76.09336853 115.89002991 C-76.08870591 112.58394509 -76.07971497 109.27792854 -76.06866455 105.97186279 C-76.05844827 102.6003885 -76.05387045 99.22890717 -76.04882812 95.85742188 C-76.03777395 89.23826225 -76.02101736 82.61913507 -76 76 C-77.11375 75.814375 -77.11375 75.814375 -78.25 75.625 C-81 75 -81 75 -85 73 C-85 90.16 -85 107.32 -85 125 C-85.66 125 -86.32 125 -87 125 C-87 122.36 -87 119.72 -87 117 C-87.66 116.67 -88.32 116.34 -89 116 C-88.67 112.04 -88.34 108.08 -88 104 C-89.98 104.495 -89.98 104.495 -92 105 C-91.26136719 104.45666016 -91.26136719 104.45666016 -90.5078125 103.90234375 C-88.30718339 101.12590236 -88.74247789 99.05874516 -88.875 95.5625 C-89.02600131 88.96648828 -88.67269205 82.55874747 -88 76 C-88.50450684 76.33845947 -89.00901367 76.67691895 -89.52880859 77.02563477 C-91.80542828 78.54626568 -94.09000966 80.05447985 -96.375 81.5625 C-97.1690625 82.09552734 -97.963125 82.62855469 -98.78125 83.17773438 C-99.54179687 83.67724609 -100.30234375 84.17675781 -101.0859375 84.69140625 C-102.1385376 85.39052124 -102.1385376 85.39052124 -103.21240234 86.10375977 C-104.09726318 86.54739868 -104.09726318 86.54739868 -105 87 C-105.66 86.67 -106.32 86.34 -107 86 C-105.50193308 84.93477619 -104.00142071 83.87299144 -102.5 82.8125 C-101.59378906 82.16539062 -100.68757812 81.51828125 -99.75390625 80.8515625 C-97.36286479 79.24396867 -95.00171348 77.9812411 -92.4375 76.6875 C-89.80585633 75.12016292 -89.13035719 74.46159268 -88.28515625 71.46875 C-88.02691158 68.94998003 -87.92142482 66.5291386 -88 64 C-88.66 64 -89.32 64 -90 64 C-90 57.4 -90 50.8 -90 44 C-89.67 44 -89.34 44 -89 44 C-89 50.27 -89 56.54 -89 63 C-87.02 63.66 -85.04 64.32 -83 65 C-73.595 68.96 -73.595 68.96 -64 73 C-63.67 57.16 -63.34 41.32 -63 25 C-53.02268947 20.34392175 -43.04631182 15.785954 -32.9375 11.4375 C-31.05048366 10.62271304 -29.1637224 9.80733781 -27.27700806 8.99185181 C-26.03659575 8.45705033 -24.79537393 7.92412214 -23.55331421 7.39315796 C-20.38310427 6.03728646 -17.2283986 4.65591585 -14.09033203 3.22705078 C-13.14015953 2.80130516 -13.14015953 2.80130516 -12.17079163 2.36695862 C-10.41984571 1.58155501 -8.67374635 0.78537237 -6.92797852 -0.01147461 C-4 -1 -4 -1 0 0 Z " fill="#3F5A73" transform="translate(293,67)"/>
<path d="M0 0 C0 22.44 0 44.88 0 68 C-2.97 68 -5.94 68 -9 68 C-9 49.85 -9 31.7 -9 13 C-13.62 14.98 -18.24 16.96 -23 19 C-23.66 19 -24.32 19 -25 19 C-25 35.17 -25 51.34 -25 68 C-27.97 68 -30.94 68 -34 68 C-34 53.15 -34 38.3 -34 23 C-38.95 25.31 -43.9 27.62 -49 30 C-49.33 42.54 -49.66 55.08 -50 68 C-52.64 68 -55.28 68 -58 68 C-58 57.11 -58 46.22 -58 35 C-62.95 36.98 -67.9 38.96 -73 41 C-73.33 49.91 -73.66 58.82 -74 68 C-76.31 68 -78.62 68 -81 68 C-81 60.08 -81 52.16 -81 44 C-85.51908031 45.97062179 -85.51908031 45.97062179 -90.03466797 47.94921875 C-94.77777778 50 -94.77777778 50 -97 50 C-97 55.94 -97 61.88 -97 68 C-98.98 68 -100.96 68 -103 68 C-103 60.08 -103 52.16 -103 44 C-91.75845697 38.37922849 -91.75845697 38.37922849 -87.19921875 36.44921875 C-85.63820435 35.7847876 -85.63820435 35.7847876 -84.0456543 35.10693359 C-82.38336792 34.40431396 -82.38336792 34.40431396 -80.6875 33.6875 C-78.20806188 32.63214168 -75.72889426 31.57616478 -73.25 30.51953125 C-72.59654099 30.24133545 -71.94308197 29.96313965 -71.26982117 29.67651367 C-62.89497594 26.10865436 -54.54166671 22.49094447 -46.1875 18.875 C-45.39994324 18.53422424 -44.61238647 18.19344849 -43.80096436 17.84234619 C-33.96907318 13.58794581 -24.1387389 9.32994059 -14.3125 5.0625 C-13.37494873 4.65563965 -12.43739746 4.2487793 -11.47143555 3.82958984 C-10.63136963 3.46430176 -9.79130371 3.09901367 -8.92578125 2.72265625 C-8.20817627 2.41078369 -7.49057129 2.09891113 -6.7512207 1.77758789 C-2.74788069 0 -2.74788069 0 0 0 Z " fill="#F6F7F9" transform="translate(180,178)"/>
<path d="M0 0 C7.12556264 5.31178306 11.43473434 11.83571118 13.1484375 20.6015625 C13.56583842 26.26794047 13.38776534 31.93082226 13.1484375 37.6015625 C9.88199326 39.31747941 7.88164896 40.22376441 4.1484375 39.6015625 C-0.40316808 36.43522819 -3.79458551 32.51667908 -7.3359375 28.2734375 C-9.59166575 25.78515995 -10.69713482 25.61641132 -14.1015625 25.2890625 C-18.66863855 25.66965217 -20.37175795 26.64002672 -23.8515625 29.6015625 C-25.44769722 31.61563773 -26.93205964 33.65993392 -28.359375 35.796875 C-30.06193656 37.85599396 -31.34940269 38.69255607 -33.8515625 39.6015625 C-38.0320134 39.30819752 -40.34042362 38.94232175 -43.8515625 36.6015625 C-44.534817 33.65244538 -44.37417314 30.62051184 -44.3515625 27.6015625 C-44.34584229 26.73885742 -44.34012207 25.87615234 -44.33422852 24.98730469 C-44.08552596 16.1077022 -41.52024694 10.32127383 -35.6015625 3.7265625 C-25.87631484 -5.06356519 -11.4510122 -6.80973815 0 0 Z " fill="#FCFCFC" transform="translate(214.8515625,275.3984375)"/>
<path d="M0 0 C7.21372175 4.98657271 12.27153314 11.00259804 14.5625 19.5078125 C15.77502549 27.76814242 15.77502549 27.76814242 12.9609375 32.1171875 C12.08695313 33.04789062 11.21296875 33.97859375 10.3125 34.9375 C9.45398438 35.88367188 8.59546875 36.82984375 7.7109375 37.8046875 C4.57906489 40.35429647 2.94700352 40.98883458 -1.0625 41.0625 C-5.59377977 39.96897849 -7.68811382 37.57654816 -10.625 34.0625 C-14.214579 29.71221838 -14.214579 29.71221838 -19.0625 27.0625 C-23.53966277 26.73688816 -27.1156089 26.80713366 -31.0625 29.0625 C-32.12966704 30.86182579 -32.12966704 30.86182579 -33.0625 33.0625 C-37.70479439 39.29294773 -37.70479439 39.29294773 -42.0625 40.0625 C-42.14434423 37.08276385 -42.20339764 34.10533168 -42.25 31.125 C-42.27513672 30.29419922 -42.30027344 29.46339844 -42.32617188 28.60742188 C-42.44626996 18.31901936 -39.61688028 11.6128852 -32.42578125 4.23828125 C-24.1553876 -3.37594894 -10.28235133 -5.15908917 0 0 Z " fill="#FCFCFD" transform="translate(134.0625,273.9375)"/>
<path d="M0 0 C80.52 0 161.04 0 244 0 C244 2.31 244 4.62 244 7 C163.48 7 82.96 7 0 7 C0 4.69 0 2.38 0 0 Z " fill="#FDFDFD" transform="translate(77,248)"/>
<path d="M0 0 C6.53539603 4.94757094 11.25839218 10.65143249 13.21875 18.6796875 C13.54495067 22.19358792 13.50615442 25.65485462 13.40625 29.1796875 C13.38594727 30.55640625 13.38594727 30.55640625 13.36523438 31.9609375 C13.33023097 34.20115553 13.28113869 36.44009344 13.21875 38.6796875 C8.7125715 36.59088601 6.36428234 33.55790609 3.21875 29.7734375 C0.26526549 26.6815084 -1.88963261 25.81427126 -6.09375 25.1796875 C-13.17159762 26.13939565 -17.22645664 31.9336015 -21.51953125 37.26171875 C-23.34630313 39.31471625 -24.70630976 39.66541317 -27.40625 40.1796875 C-32.56241302 39.4158115 -35.20927415 36.29567127 -38.78125 32.6796875 C-39.31621094 32.17824219 -39.85117188 31.67679687 -40.40234375 31.16015625 C-43.02505404 28.46314821 -43.78428558 26.65945032 -44.34375 22.9296875 C-43.7231344 14.59115996 -40.10464245 7.93359019 -33.9609375 2.375 C-24.30512611 -5.13507553 -10.69980795 -6.31288669 0 0 Z " fill="#FCFCFC" transform="translate(294.78125,275.3203125)"/>
<path d="M0 0 C0.33 0 0.66 0 1 0 C1.33 11.55 1.66 23.1 2 35 C82.85 35 163.7 35 247 35 C247.33 48.86 247.66 62.72 248 77 C248.33 78.98 248.66 80.96 249 83 C249.9075 82.34 250.815 81.68 251.75 81 C255 79 255 79 259 79 C259 79.66 259 80.32 259 81 C258.113125 81.226875 257.22625 81.45375 256.3125 81.6875 C251.52603147 83.58402527 249.02642536 86.66253665 245.9375 90.6875 C242.86047602 94.36007701 240.99396722 94.85090492 236.25 95.5625 C231.50852759 95.45634763 229.05674742 93.07568917 225.7578125 89.88671875 C223.70741319 87.68595682 221.82676713 85.38884933 220 83 C216.78626241 81.3931312 213.48625172 81.53381518 210 82 C205.70003444 84.51705301 202.72238046 88.50252092 199.55078125 92.29296875 C197.76109087 94.26298058 196.67736009 94.90516959 194.046875 95.2734375 C189.76364656 95.46283196 187.57422411 95.36750343 183.875 93 C182.18801928 91.39621285 180.8046201 89.7428211 179.39453125 87.88671875 C175.52086088 82.85863998 175.52086088 82.85863998 169.75 80.75 C164.81405129 81.1323024 162.17241164 84.42221475 159.0625 87.9375 C158.13076393 89.04580228 157.20464815 90.15886232 156.28515625 91.27734375 C154.09321488 93.88893886 153.35440583 94.75272259 150.1171875 95.34375 C145.16692645 95.68871593 142.49091287 95.10213102 138.6875 91.8125 C135.87632551 89.05721367 133.39197891 86.12797242 131 83 C127.52599767 81.26299884 124.65673232 80.82742798 121 82 C118.07199637 84.63823074 115.70446519 87.35438609 113.19921875 90.3984375 C111.01673191 92.98020702 109.37445119 94.72297883 105.984375 95.40625 C101.51753158 95.59367 98.74384884 95.3018646 95.25 92.375 C92.2565418 89.45099558 89.63901503 86.24221846 87 83 C83.7748426 81.3874213 80.48811093 81.41188827 77 82 C74.29199403 84.03949126 74.29199403 84.03949126 72 87 C70.78316187 88.26200462 69.55340309 89.51165021 68.3125 90.75 C67.73113281 91.34296875 67.14976562 91.9359375 66.55078125 92.546875 C63.73700279 95.18346338 61.04846077 95.51518567 57.22265625 95.48046875 C52.83017834 94.53095243 50.03399979 91.13124337 47 88 C46.47921875 87.49082031 45.9584375 86.98164063 45.421875 86.45703125 C44.26378738 85.3222385 43.12926164 84.16348169 42 83 C40.79767541 81.5870293 40.79767541 81.5870293 37.3125 81.625 C33.43810095 81.68715613 31.31614128 82.68829698 28.4453125 85.42578125 C26.32087628 87.73969421 24.2721631 90.10431445 22.296875 92.546875 C20.67306693 94.3663226 19.48168271 94.92249912 17.08203125 95.30859375 C12.57822855 95.56440354 9.77311208 95.34060863 6.25 92.375 C4.11083805 90.29976703 2.26206808 88.10166553 0.4375 85.75 C-2.26376214 82.70242221 -4.08703759 81.90999126 -8 81 C-8 80.34 -8 79.68 -8 79 C-2.125 79.875 -2.125 79.875 -1 81 C-0.67 54.27 -0.34 27.54 0 0 Z M2 36 C2 38.97 2 41.94 2 45 C11.24 45 20.48 45 30 45 C30 45.66 30 46.32 30 47 C20.76 47 11.52 47 2 47 C1.86178102 52.28559637 1.7425112 57.56486202 1.67041016 62.85083008 C1.64034296 64.64629421 1.5994766 66.44161274 1.54736328 68.23657227 C1.47409651 70.82604974 1.44044509 73.41357699 1.4140625 76.00390625 C1.38309479 76.79898087 1.35212708 77.59405548 1.32022095 78.41322327 C1.31699131 83.83122678 2.64122246 86.62144595 6.31747437 90.58970642 C9.20321763 93.00853744 11.20771908 94 15 94 C15.05607422 92.09927734 15.05607422 92.09927734 15.11328125 90.16015625 C15.17899793 88.46091069 15.24544323 86.7616932 15.3125 85.0625 C15.34633789 83.81629883 15.34633789 83.81629883 15.38085938 82.54492188 C15.79542137 72.8592462 18.58486324 64.40761307 25 57 C33.5097159 50.14217013 42.34744264 48.92928141 53 50 C61.51904711 52.66014116 67.28331889 58.07033641 71.86328125 65.59765625 C74.02279395 70.16157484 74.99039668 75.07510575 76 80 C76.556875 79.91878906 77.11375 79.83757812 77.6875 79.75390625 C81.54204766 79.4348643 84.04633669 79.3658139 87.34375 81.55859375 C89.29554445 83.31591593 91.14367245 85.14367245 93 87 C93.33 87 93.66 87 94 87 C94.02578125 86.10539062 94.0515625 85.21078125 94.078125 84.2890625 C94.54751659 74.28248728 95.91755173 65.12552681 103.0625 57.60546875 C110.53786268 51.41116621 118.09336332 49.07331007 127.73828125 49.55078125 C135.97441784 50.68509946 142.56144222 54.73203253 148 61 C152.36555882 68.03039125 154.03092746 74.04859511 154.5625 82.25 C154.64628906 83.51328125 154.73007813 84.7765625 154.81640625 86.078125 C154.87699219 87.04234375 154.93757812 88.0065625 155 89 C155.70125 88.2575 156.4025 87.515 157.125 86.75 C161.29709444 82.75930097 164.43691123 79.76047282 170.375 79.75 C171.57125 79.8325 172.7675 79.915 174 80 C174.14695313 79.05640625 174.14695313 79.05640625 174.296875 78.09375 C175.69234051 70.10591293 178.15243896 62.84756104 184 57 C193.14623229 50.82214953 199.91245001 49.13618874 211 50 C216.71875485 51.43526617 221.1139543 53.46628001 225 58 C225.66 58 226.32 58 227 58 C228.51974685 60.94408359 229.82972262 63.9250876 231.0625 67 C231.40410156 67.845625 231.74570312 68.69125 232.09765625 69.5625 C233.43642537 73.17891528 234.12386685 76.47733692 234.31640625 80.328125 C234.37924805 81.52695312 234.37924805 81.52695312 234.44335938 82.75 C234.48267578 83.575 234.52199219 84.4 234.5625 85.25 C234.60568359 86.09046875 234.64886719 86.9309375 234.69335938 87.796875 C234.79908543 89.86440671 234.90001295 91.93218281 235 94 C238.65923322 93.74470466 240.69053426 93.22658775 243.67651367 91.0402832 C246.89810009 86.82483552 246.64118993 83.70394238 246.48828125 78.54296875 C246.48120651 77.64000565 246.47413177 76.73704254 246.46684265 75.80671692 C246.43893319 72.93278912 246.37620232 70.06083528 246.3125 67.1875 C246.28741262 65.23505425 246.26460022 63.28257785 246.24414062 61.33007812 C246.19337503 56.55201987 246.09552174 51.77820952 246 47 C238.08 47 230.16 47 222 47 C222 46.34 222 45.68 222 45 C229.92 45 237.84 45 246 45 C246 42.03 246 39.06 246 36 C165.48 36 84.96 36 2 36 Z M21.7265625 62.328125 C17.2851016 69.20133599 16.56982313 76.04171847 16.8125 84.0625 C16.82603516 84.92810547 16.83957031 85.79371094 16.85351562 86.68554688 C16.8884067 88.79064174 16.94219335 90.89540974 17 93 C20.68260666 91.74527882 22.84428216 90.51033287 25.3125 87.5 C26.08013672 86.58734375 26.08013672 86.58734375 26.86328125 85.65625 C28.18862281 84.05996882 28.18862281 84.05996882 28 82 C32.14252247 79.99150426 35.4150158 79.51737008 40 80 C44.35174944 82.12957951 46.86713321 85.00535508 49.875 88.6875 C52.384662 91.56454598 54.20865118 93.64508801 58 94.5 C61.63586224 94.57157209 63.51527132 93.17419782 66.25 90.875 C67.52350852 89.60650529 68.77587033 88.31621022 70 87 C70.825 86.175 71.65 85.35 72.5 84.5 C75.30077462 79.8320423 74.22419726 75.26395789 73.0625 70.1875 C70.66787482 62.78901183 65.01848023 56.55389026 58.5 52.375 C44.34190077 46.42119167 31.34008644 51.80467904 21.7265625 62.328125 Z M100 63 C95.71086361 68.72690324 95.58233905 74.96087528 95.4375 81.875 C95.41042969 82.7203833 95.38335937 83.5657666 95.35546875 84.43676758 C95.37026034 86.73755266 95.45039758 88.76539418 96 91 C99.05101172 93.73201893 100.39340438 94.01083206 104.5 93.9375 C109.88229354 92.49581423 112.49263702 89.85382744 115.5625 85.375 C117.45053487 82.64524061 118.67061219 80.88130854 122 80 C125.64872164 79.36849049 127.94997878 79.30129429 131.08984375 81.390625 C134.84750112 84.60947489 137.97754347 88.08200079 141 92 C145.19882375 94.79921583 147.12127113 93.86558093 152 93 C154.27531752 90.72468248 153.31172313 84.95150382 153.31469727 81.78735352 C153.14850954 72.36972127 150.71396602 64.58647149 144.0234375 57.7265625 C136.77549676 51.5420262 130.00790501 50.21894286 120.5546875 50.58984375 C111.49458864 51.63523977 105.63751555 55.94992412 100 63 Z M181.47265625 60.984375 C177.54298157 66.36292177 175.46911874 72.29045985 175.61010742 78.9909668 C176.32908652 82.69571257 178.74333356 84.88149397 181.375 87.4375 C182.13683594 88.22930664 182.13683594 88.22930664 182.9140625 89.03710938 C185.78926982 91.98419688 187.58760967 93.77007599 191.6875 94.4375 C198.44983984 93.54436078 202.65182227 87.4896562 206.73828125 82.41796875 C208.81681648 80.08202978 210.0908617 79.9912633 213.25 79.6875 C219.89336917 80.2411141 223.0482685 83.94261351 227.25 88.75 C227.91515625 89.54921875 228.5803125 90.3484375 229.265625 91.171875 C230.12414062 92.07679688 230.12414062 92.07679688 231 93 C231.66 93 232.32 93 233 93 C233.11792821 89.85449187 233.18781383 86.70956459 233.25 83.5625 C233.28351563 82.68400391 233.31703125 81.80550781 233.3515625 80.90039062 C233.48830608 71.6360129 230.38986626 64.51251715 224.0234375 57.796875 C216.94979062 51.51525808 209.97466624 50.17080378 200.625 50.51953125 C192.8622971 51.54842398 186.74499093 55.25086684 181.47265625 60.984375 Z " fill="#5F758B" transform="translate(75,221)"/>
<path d="M0 0 C0.33 0 0.66 0 1 0 C1 11.88 1 23.76 1 36 C2.65 36.66 4.3 37.32 6 38 C8.27929688 39.10742188 8.27929688 39.10742188 10 41 C10.40523354 43.88862699 10.56107562 46.39172626 10.53125 49.28125 C10.53699036 50.4960907 10.53699036 50.4960907 10.54284668 51.73547363 C10.54556724 53.44687138 10.53819584 55.15831059 10.52148438 56.86962891 C10.50007473 59.49085087 10.52127892 62.10933214 10.546875 64.73046875 C10.54423175 66.39323522 10.53910681 68.05599999 10.53125 69.71875 C10.53934692 70.50318481 10.54744385 71.28761963 10.55578613 72.0958252 C10.46210289 77.52616117 10.46210289 77.52616117 8.15429688 79.89257812 C7.44337891 80.25802734 6.73246094 80.62347656 6 81 C5.01 81.66 4.02 82.32 3 83 C0.65574498 84.10104725 -1.68666212 85.16030661 -4.0625 86.1875 C-4.69994141 86.47302734 -5.33738281 86.75855469 -5.99414062 87.05273438 C-7.63709898 87.76427903 -9.31706973 88.38897327 -11 89 C-11.99 88.505 -11.99 88.505 -13 88 C-12.67 69.19 -12.34 50.38 -12 31 C-21.78470224 35.27433757 -21.78470224 35.27433757 -31.56591797 39.55664062 C-32.79121508 40.09013338 -34.01663022 40.62335518 -35.2421875 41.15625 C-35.87970947 41.43694336 -36.51723145 41.71763672 -37.17407227 42.00683594 C-41.7718564 44 -41.7718564 44 -44 44 C-44 62.81 -44 81.62 -44 101 C-41.03 100.01 -41.03 100.01 -38 99 C-40.43872742 101.81007097 -42.92096744 103.03267676 -46.32421875 104.48046875 C-47.35224609 104.92197266 -48.38027344 105.36347656 -49.43945312 105.81835938 C-50.51130859 106.27017578 -51.58316406 106.72199219 -52.6875 107.1875 C-53.77095703 107.65091797 -54.85441406 108.11433594 -55.97070312 108.59179688 C-58.64439484 109.7342995 -61.32184608 110.8679968 -64 112 C-64.33 119.92 -64.66 127.84 -65 136 C-63.02 136 -61.04 136 -59 136 C-59 130.39 -59 124.78 -59 119 C-58.67 119 -58.34 119 -58 119 C-58 124.94 -58 130.88 -58 137 C-60.64 137.33 -63.28 137.66 -66 138 C-66 128.76 -66 119.52 -66 110 C-59.73 107.36 -53.46 104.72 -47 102 C-46.67 82.53 -46.34 63.06 -46 43 C-38.61885539 39.3094277 -31.31659851 35.81274088 -23.75 32.5625 C-22.70070312 32.09134766 -21.65140625 31.62019531 -20.5703125 31.13476562 C-12.93107125 27.87116572 -12.93107125 27.87116572 -8.640625 28.46484375 C-5.68353435 30.18398077 -2.84602766 32.10264822 0 34 C0 22.78 0 11.56 0 0 Z " fill="#2C454D" transform="translate(142,110)"/>
<path d="M0 0 C13.33041635 4.44347212 26.10697392 10.41302203 39 16 C39 48.01 39 80.02 39 113 C38.34 113 37.68 113 37 113 C36.67 82.64 36.34 52.28 36 21 C33.36 20.01 30.72 19.02 28 18 C27.67 49.35 27.34 80.7 27 113 C26.34 113 25.68 113 25 113 C24.67 80.99 24.34 48.98 24 16 C19.545 14.02 19.545 14.02 15 12 C15 45.33 15 78.66 15 113 C14.67 113 14.34 113 14 113 C13.98969254 112.42592911 13.97938507 111.85185822 13.96876526 111.26039124 C13.86092566 105.30734338 13.74631023 99.35445385 13.62768555 93.40161133 C13.58426412 91.17736104 13.54259455 88.95307585 13.50268555 86.72875977 C13.44515694 83.53911805 13.38141316 80.3496532 13.31640625 77.16015625 C13.29969376 76.15912369 13.28298126 75.15809113 13.26576233 74.12672424 C13.24581711 73.20584518 13.22587189 72.28496613 13.20532227 71.33618164 C13.18200584 70.11373497 13.18200584 70.11373497 13.15821838 68.86659241 C13.20086137 66.98590881 13.20086137 66.98590881 12 66 C11.90634994 64.2507128 11.88255562 62.49763746 11.88647461 60.74584961 C11.88655014 59.62476303 11.88662567 58.50367645 11.88670349 57.34861755 C11.89186478 56.1288472 11.89702606 54.90907684 11.90234375 53.65234375 C11.9037587 52.41078018 11.90517365 51.16921661 11.90663147 49.89002991 C11.91129409 46.58394509 11.92028503 43.27792854 11.93133545 39.97186279 C11.94155173 36.6003885 11.94612955 33.22890717 11.95117188 29.85742188 C11.96222605 23.23826225 11.97898264 16.61913507 12 10 C11.2575 9.87625 10.515 9.7525 9.75 9.625 C7 9 7 9 3 7 C3 24.16 3 41.32 3 59 C2.34 59 1.68 59 1 59 C1 56.36 1 53.72 1 51 C0.34 50.67 -0.32 50.34 -1 50 C-0.67 46.04 -0.34 42.08 0 38 C-1.98 38.495 -1.98 38.495 -4 39 C-3.26136719 38.45666016 -3.26136719 38.45666016 -2.5078125 37.90234375 C-0.30718339 35.12590236 -0.74247789 33.05874516 -0.875 29.5625 C-1.02600131 22.96648828 -0.67269205 16.55874747 0 10 C-0.50450684 10.33845947 -1.00901367 10.67691895 -1.52880859 11.02563477 C-3.80542828 12.54626568 -6.09000966 14.05447985 -8.375 15.5625 C-9.1690625 16.09552734 -9.963125 16.62855469 -10.78125 17.17773438 C-11.54179687 17.67724609 -12.30234375 18.17675781 -13.0859375 18.69140625 C-13.7876709 19.15748291 -14.4894043 19.62355957 -15.21240234 20.10375977 C-15.80230957 20.39951904 -16.3922168 20.69527832 -17 21 C-17.66 20.67 -18.32 20.34 -19 20 C-17.50193308 18.93477619 -16.00142071 17.87299144 -14.5 16.8125 C-13.14068359 15.84570312 -13.14068359 15.84570312 -11.75390625 14.859375 C-9.36570742 13.24691735 -6.97823208 11.90894967 -4.4375 10.5625 C-2.08372177 9.15118026 -1.18298377 8.53395264 -0.28515625 5.9140625 C0.07807213 3.4520204 0.07807213 3.4520204 0 0 Z " fill="#E5E8EA" transform="translate(205,133)"/>
<path d="M0 0 C9 3 9 3 10 4 C10.09529612 7.01350238 10.12551904 10.00404106 10.11352539 13.01782227 C10.11367142 13.96406464 10.11381744 14.91030701 10.1139679 15.88522339 C10.11326836 19.02897392 10.10547409 22.17266601 10.09765625 25.31640625 C10.09579221 27.48974068 10.09436824 29.66307552 10.09336853 31.83641052 C10.08954221 37.56901195 10.07971097 43.30158823 10.06866455 49.03417969 C10.05845287 54.87890279 10.05387143 60.72362993 10.04882812 66.56835938 C10.0380888 78.045584 10.02101102 89.52278991 10 101 C6.7 101 3.4 101 0 101 C0 67.67 0 34.34 0 0 Z " fill="#2D464C" transform="translate(220,145)"/>
<path d="M0 0 C4.455 1.98 4.455 1.98 9 4 C9 34.36 9 64.72 9 96 C5.7 96 2.4 96 -1 96 C-1.02312154 83.63081285 -1.04091412 71.26163081 -1.05181217 58.89242649 C-1.05704141 53.14954938 -1.0641398 47.40668699 -1.07543945 41.66381836 C-1.08626687 36.12660005 -1.09227652 30.58939596 -1.09487724 25.05216789 C-1.09673176 22.93455723 -1.10035286 20.81694738 -1.10573006 18.69934273 C-1.11293856 15.74428726 -1.11399102 12.78929129 -1.11352539 9.83422852 C-1.11712067 8.94950363 -1.12071594 8.06477875 -1.12442017 7.15324402 C-1.11405216 1.11405216 -1.11405216 1.11405216 0 0 Z " fill="#2D464B" transform="translate(233,150)"/>
<path d="M0 0 C0 18.81 0 37.62 0 57 C-5 59 -5 59 -8 59 C-8 56.69 -8 54.38 -8 52 C-7.030625 51.566875 -6.06125 51.13375 -5.0625 50.6875 C-1.72268235 49.2985139 -1.72268235 49.2985139 -1 46 C-1.54269531 46.2165625 -2.08539063 46.433125 -2.64453125 46.65625 C-3.35996094 46.9346875 -4.07539062 47.213125 -4.8125 47.5 C-5.52019531 47.7784375 -6.22789063 48.056875 -6.95703125 48.34375 C-9 49 -9 49 -12 49 C-11.625 46.5625 -11.625 46.5625 -11 44 C-10.01 43.505 -10.01 43.505 -9 43 C-8.84864056 41.2127943 -8.77824222 39.41838124 -8.75 37.625 C-8.546875 34.6015625 -8.546875 34.6015625 -8 32 C-5 30 -5 30 -2 29 C-1.67 28.01 -1.34 27.02 -1 26 C-1.54269531 26.2165625 -2.08539063 26.433125 -2.64453125 26.65625 C-3.35996094 26.9346875 -4.07539062 27.213125 -4.8125 27.5 C-5.52019531 27.7784375 -6.22789063 28.056875 -6.95703125 28.34375 C-9 29 -9 29 -12 29 C-11.67 27.35 -11.34 25.7 -11 24 C-10.01 24 -9.02 24 -8 24 C-8 20.37 -8 16.74 -8 13 C-7.030625 12.566875 -6.06125 12.13375 -5.0625 11.6875 C-1.72268235 10.2985139 -1.72268235 10.2985139 -1 7 C-10.12072271 10.42405869 -19.06559105 14.11939813 -28 18 C-28.33 22.62 -28.66 27.24 -29 32 C-27.68 31.34 -26.36 30.68 -25 30 C-24.01 30 -23.02 30 -22 30 C-22 26.37 -22 22.74 -22 19 C-20.68 18.34 -19.36 17.68 -18 17 C-18 22.28 -18 27.56 -18 33 C-26.75 37 -26.75 37 -29 37 C-28.67 41.62 -28.34 46.24 -28 51 C-25.03 50.505 -25.03 50.505 -22 50 C-22 46.04 -22 42.08 -22 38 C-20.68 37.34 -19.36 36.68 -18 36 C-18 41.28 -18 46.56 -18 52 C-19.629375 52.5775 -21.25875 53.155 -22.9375 53.75 C-25.76080676 54.97825632 -25.76080676 54.97825632 -28 57 C-29.19186329 61.03763379 -29.22690718 64.81556473 -29 69 C-30.485 69.495 -30.485 69.495 -32 70 C-32 51.19 -32 32.38 -32 13 C-27.09125 10.855 -22.1825 8.71 -17.125 6.5 C-15.57699707 5.82130859 -14.02899414 5.14261719 -12.43408203 4.44335938 C-11.20878492 3.90986662 -9.98336978 3.37664482 -8.7578125 2.84375 C-8.12029053 2.56305664 -7.48276855 2.28236328 -6.82592773 1.99316406 C-2.2281436 0 -2.2281436 0 0 0 Z " fill="#F0F2F3" transform="translate(130,141)"/>
<path d="M0 0 C19.54475309 8.04783951 19.54475309 8.04783951 27.5625 11.4375 C31.7390625 13.2009375 31.7390625 13.2009375 36 15 C36 21.93 36 28.86 36 36 C34.68 36.66 33.36 37.32 32 38 C31.67 32.06 31.34 26.12 31 20 C29.02 19.34 27.04 18.68 25 18 C24.34 17.67 23.68 17.34 23 17 C23 15.35 23 13.7 23 12 C22.34 12 21.68 12 21 12 C21.02094727 12.98395752 21.04189453 13.96791504 21.06347656 14.98168945 C21.13587842 18.63242031 21.1817995 22.28308775 21.21972656 25.93432617 C21.23984186 27.51451285 21.26713804 29.09462509 21.30175781 30.67456055 C21.35028343 32.94598748 21.37296809 35.21643058 21.390625 37.48828125 C21.41127014 38.19463211 21.43191528 38.90098297 21.45318604 39.6287384 C21.45468798 42.91205631 21.43017808 44.55395288 19.10058594 46.96948242 C17 48 17 48 15 48 C14.505 30.675 14.505 30.675 14 13 C12.02 12.34 10.04 11.68 8 11 C7.34 10.67 6.68 10.34 6 10 C5.67 34.09 5.34 58.18 5 83 C2.525 83.495 2.525 83.495 0 84 C0 56.28 0 28.56 0 0 Z " fill="#E5E9ED" transform="translate(166,97)"/>
<path d="M0 0 C0 17.16 0 34.32 0 52 C-3.96 52 -7.92 52 -12 52 C-12 36.16 -12 20.32 -12 4 C-3 0 -3 0 0 0 Z " fill="#FDFDFD" transform="translate(169,194)"/>
<path d="M0 0 C3.78921974 0.26436417 5.63508885 0.68849049 8.5625 3.1875 C10.29860279 5.19069553 12.00232519 7.20512414 13.6875 9.25 C15.7042322 12.01742194 15.7042322 12.01742194 18 13 C20.07564676 13.19758231 20.07564676 13.19758231 22.375 13.1875 C23.14585938 13.20167969 23.91671875 13.21585937 24.7109375 13.23046875 C27.26258586 12.97356217 28.84644953 12.37999132 31 11 C31.268125 10.2575 31.53625 9.515 31.8125 8.75 C33.57616447 4.66572439 36.15337512 2.21162683 40 0 C43.2131098 -0.85569591 45.78564639 -0.85069039 49 0 C52.4954407 2.02892179 55.05591855 4.72510834 57.44921875 7.95703125 C60.15750312 11.68300001 60.15750312 11.68300001 64.19921875 13.6171875 C68.4284799 13.85486499 70.41626197 13.45401847 73.8125 10.8125 C75.21700331 9.00671003 76.61356346 7.19469796 78 5.375 C80.602775 2.28420468 82.82227004 0.32311847 86.921875 -0.28515625 C91.46123319 -0.4814067 94.44039172 -0.01197624 98 3 C99.89480031 5.29610081 101.69431518 7.63433876 103.44921875 10.0390625 C105.60250421 12.7618567 107.57806478 13.35688039 110.9375 13.8125 C114.86092621 13.83797679 115.97105709 13.02574396 118.96875 10.359375 C120.96877757 8.21446046 122.85063895 5.98587459 124.71484375 3.72265625 C127.58888916 0.29836625 128.18842324 0.11194162 132.625 -0.5 C137.46886348 -0.45596488 139.87173207 1.85517434 143.2421875 5.11328125 C145.29258681 7.31404318 147.17323287 9.61115067 149 12 C152.23690207 13.61845104 155.50058088 13.57013008 159 13 C163.35750803 10.1240447 166.43318469 6.49659958 169.703125 2.453125 C171.34515861 0.61325602 172.51748791 0.06755169 174.953125 -0.2734375 C179.37689847 -0.46904653 181.47978349 -0.3337238 185.3125 2.125 C187.93260517 4.9279032 189.92655937 7.78259212 192 11 C196.01711773 13.67807849 199.27809737 13.80923066 204 13 C206.8744845 10.95910144 206.8744845 10.95910144 209 8 C213.03781583 2.91856408 215.19475908 0.42078614 221.75 -0.5625 C226.49147241 -0.45634763 228.94325258 1.92431083 232.2421875 5.11328125 C234.29258681 7.31404318 236.17323287 9.61115067 238 12 C241.21373759 13.6068688 244.51374828 13.46618482 248 13 C250.80710788 11.3568149 252.58758888 9.51426569 254.61328125 6.98828125 C259.82044762 0.55725759 259.82044762 0.55725759 263.9375 0 C264.948125 0 265.95875 0 267 0 C266.67 0.66 266.34 1.32 266 2 C264.515 2.495 264.515 2.495 263 3 C258.09073757 4.93117984 255.24071406 8.874195 251.91796875 12.8203125 C249.29801144 15.79777926 248.38590672 15.94677149 244.375 16.5 C239.53113652 16.45596488 237.12826793 14.14482566 233.7578125 10.88671875 C231.70741319 8.68595682 229.82676713 6.38884933 228 4 C224.2970468 2.1485234 220.98804865 1.82952884 217 3 C214.08536375 5.59551549 211.70261176 8.35616505 209.26171875 11.3984375 C205.92922256 15.23167146 204.09664665 15.89555746 199.0625 16.375 C194.8324719 16.23451936 193.00402222 15.08104843 190 12 C187.61779528 9.3729434 185.29856647 6.7001977 183 4 C181.44049449 2.44049449 179.91122869 2.71803302 177.75 2.625 C174.17663349 2.67572602 173.28699281 2.77450565 170.375 5.0625 C169.59125 6.031875 168.8075 7.00125 168 8 C166.78454086 9.2633328 165.55467514 10.51292619 164.3125 11.75 C163.44044922 12.63945312 163.44044922 12.63945312 162.55078125 13.546875 C159.69972651 16.21839228 157.02026553 16.46220547 153.15234375 16.40625 C147.66359001 15.37026018 144.25924071 10.36070768 141 6.1875 C138.75012166 3.49482646 138.01386531 3.0047043 134.5 1.8125 C130.04835187 2.05098115 128.35524234 3.08239796 125 6 C123.66730547 7.75438294 122.43943206 9.55965083 121.203125 11.3828125 C119.4014325 13.80456801 117.80454597 14.89122601 115 16 C108.57442117 16.93274531 108.57442117 16.93274531 105.140625 14.8984375 C101.99414765 12.29493633 99.50630457 9.39663072 97 6.1875 C94.72111095 3.4467561 94.04417092 3.01394871 90.4375 1.875 C85.65226937 2.04900839 83.17558636 3.79211731 79.8671875 7.19140625 C79.20976562 7.97386719 78.55234375 8.75632812 77.875 9.5625 C75.62177668 12.2321751 73.93052341 14.04631773 71 16 C65.6760851 16.42934798 62.21739328 16.56856355 58 13 C56.10519969 10.70389919 54.30568482 8.36566124 52.55078125 5.9609375 C50.77611827 3.71690521 49.82765732 3.11382321 47.01171875 2.7265625 C42.77126613 2.54126541 40.70428276 2.4557815 37.25 5.125 C36.5075 6.07375 35.765 7.0225 35 8 C29.41934026 15.02304564 29.41934026 15.02304564 26 16 C21.10747629 16.55238171 19.08842884 16.71081067 14.9375 14 C12.58099828 11.76516549 10.53220973 9.29093888 8.4375 6.8125 C5.8824875 3.79758525 3.96214983 1.96052117 0 1 C0 0.67 0 0.34 0 0 Z " fill="#39556F" transform="translate(66,319)"/>
<path d="M0 0 C0 13.86 0 27.72 0 42 C-4.29 42 -8.58 42 -13 42 C-13 29.79 -13 17.58 -13 5 C-2 0 -2 0 0 0 Z " fill="#F9FAFB" transform="translate(144,204)"/>
<path d="M0 0 C2.97 0.99 5.94 1.98 9 3 C9 21.15 9 39.3 9 58 C5.19758429 56.47903372 1.63525385 54.85989732 -2 53 C-1.01 52.505 -1.01 52.505 0 52 C0 34.84 0 17.68 0 0 Z " fill="#2A4348" transform="translate(208,140)"/>
<path d="M0 0 C0 10.23 0 20.46 0 31 C-4.29 31 -8.58 31 -13 31 C-13 22.42 -13 13.84 -13 5 C-2 0 -2 0 0 0 Z " fill="#F9F9FA" transform="translate(120,215)"/>
<path d="M0 0 C0 15.51 0 31.02 0 47 C-5 49 -5 49 -8 49 C-8 46.69 -8 44.38 -8 42 C-7.030625 41.566875 -6.06125 41.13375 -5.0625 40.6875 C-1.72268235 39.2985139 -1.72268235 39.2985139 -1 36 C-1.54269531 36.2165625 -2.08539063 36.433125 -2.64453125 36.65625 C-3.35996094 36.9346875 -4.07539062 37.213125 -4.8125 37.5 C-5.52019531 37.7784375 -6.22789063 38.056875 -6.95703125 38.34375 C-9 39 -9 39 -12 39 C-11.625 36.5625 -11.625 36.5625 -11 34 C-10.01 33.505 -10.01 33.505 -9 33 C-8.84864056 31.2127943 -8.77824222 29.41838124 -8.75 27.625 C-8.546875 24.6015625 -8.546875 24.6015625 -8 22 C-5 20 -5 20 -2 19 C-1.67 18.01 -1.34 17.02 -1 16 C-1.54269531 16.2165625 -2.08539063 16.433125 -2.64453125 16.65625 C-3.35996094 16.9346875 -4.07539062 17.213125 -4.8125 17.5 C-5.52019531 17.7784375 -6.22789063 18.056875 -6.95703125 18.34375 C-9 19 -9 19 -12 19 C-11.67 17.35 -11.34 15.7 -11 14 C-10.01 14 -9.02 14 -8 14 C-8 10.37 -8 6.74 -8 3 C-2.25 0 -2.25 0 0 0 Z " fill="#F8F9F9" transform="translate(130,151)"/>
<path d="M0 0 C4.99121994 0.83186999 8.85588776 2.03013775 13.375 4.0625 C15.56125 5.031875 17.7475 6.00125 20 7 C20 13.93 20 20.86 20 28 C18.02 28.99 18.02 28.99 16 30 C15.67 24.06 15.34 18.12 15 12 C13.02 11.34 11.04 10.68 9 10 C8.34 9.67 7.68 9.34 7 9 C7 7.35 7 5.7 7 4 C6.34 4 5.68 4 5 4 C5 14.89 5 25.78 5 37 C3.35 37.66 1.7 38.32 0 39 C0 26.13 0 13.26 0 0 Z " fill="#FDFDFD" transform="translate(182,105)"/>
<path d="M0 0 C0 10.89 0 21.78 0 33 C-8 36 -8 36 -11 36 C-10.67 25.11 -10.34 14.22 -10 3 C-3 0 -3 0 0 0 Z " fill="#EAEDF0" transform="translate(257,170)"/>
<path d="M0 0 C0 10.89 0 21.78 0 33 C-9 37 -9 37 -11 37 C-10.67 26.11 -10.34 15.22 -10 4 C-2 0 -2 0 0 0 Z " fill="#EAEDF0" transform="translate(257,132)"/>
<path d="M0 0 C0 10.56 0 21.12 0 32 C-8 36 -8 36 -11 36 C-10.67 25.44 -10.34 14.88 -10 4 C-2 0 -2 0 0 0 Z " fill="#EAEDF0" transform="translate(257,207)"/>
<path d="M0 0 C0.33 0 0.66 0 1 0 C1.02481649 5.56843749 1.04291507 11.13684241 1.05493164 16.70532227 C1.05994403 18.59758058 1.06675567 20.48983505 1.07543945 22.38208008 C1.08764098 25.11019848 1.09325938 27.83826543 1.09765625 30.56640625 C1.10281754 31.40522842 1.10797882 32.2440506 1.11329651 33.10829163 C1.11374383 37.8480001 0.79326968 42.32547312 0 47 C-5.75 46.125 -5.75 46.125 -8 45 C-8 40.05 -8 35.1 -8 30 C-2 30 -2 30 0 31 C0 27.37 0 23.74 0 20 C-0.94875 19.690625 -1.8975 19.38125 -2.875 19.0625 C-6 18 -6 18 -8 17 C-8 12.05 -8 7.1 -8 2 C-2 3 -2 3 0 4 C0 2.68 0 1.36 0 0 Z " fill="#032648" transform="translate(180,106)"/>
<path d="M0 0 C1.32 0 2.64 0 4 0 C4 0.66 4 1.32 4 2 C25.45 2 46.9 2 69 2 C69 4.64 69 7.28 69 10 C68.67 10 68.34 10 68 10 C68 7.69 68 5.38 68 3 C-12.52 3 -93.04 3 -176 3 C-176 2.67 -176 2.34 -176 2 C-117.92 2 -59.84 2 0 2 C0 1.34 0 0.68 0 0 Z " fill="#74879A" transform="translate(253,245)"/>
<path d="M0 0 C9.46192003 -0.64758388 16.29607866 0.92435912 24.25 6.125 C32.73862759 14.99947429 35.37858478 24.52299587 35.125 36.5 C35.11597656 37.32242188 35.10695313 38.14484375 35.09765625 38.9921875 C35.07436865 40.99492083 35.03850959 42.99750154 35 45 C41.35046163 42.61505812 41.35046163 42.61505812 46 38 C46.61827774 34.67282743 46.8710365 31.37884382 47 28 C47.33 28 47.66 28 48 28 C48.495 30.97 48.495 30.97 49 34 C49.9075 33.34 50.815 32.68 51.75 32 C55 30 55 30 59 30 C59 30.66 59 31.32 59 32 C57.6696875 32.3403125 57.6696875 32.3403125 56.3125 32.6875 C51.52603147 34.58402527 49.02642536 37.66253665 45.9375 41.6875 C42.86047602 45.36007701 40.99396722 45.85090492 36.25 46.5625 C31.50852759 46.45634763 29.05674742 44.07568917 25.7578125 40.88671875 C23.70741319 38.68595682 21.82676713 36.38884933 20 34 C16.78626241 32.3931312 13.48625172 32.53381518 10 33 C5.70003444 35.51705301 2.72238046 39.50252092 -0.44921875 43.29296875 C-2.30521061 45.33596231 -3.34760321 45.93670777 -6.09375 46.203125 C-6.8878125 46.21859375 -7.681875 46.2340625 -8.5 46.25 C-9.2940625 46.27578125 -10.088125 46.3015625 -10.90625 46.328125 C-11.5971875 46.21984375 -12.288125 46.1115625 -13 46 C-13.66 45.01 -14.32 44.02 -15 43 C-14.34773438 43.13019531 -13.69546875 43.26039063 -13.0234375 43.39453125 C-7.1578087 44.34195637 -7.1578087 44.34195637 -1.8125 42.0625 C-0.83801556 41.07691032 0.09618652 40.05077502 1 39 C1.60972656 38.31292969 2.21945312 37.62585938 2.84765625 36.91796875 C4.07677026 35.51723307 5.29030792 34.10260402 6.484375 32.671875 C8.74010325 30.18359745 9.84557232 30.01484882 13.25 29.6875 C19.86139245 30.23844937 23.03911696 33.92275307 27.25 38.6875 C27.91515625 39.47511719 28.5803125 40.26273437 29.265625 41.07421875 C30.86305999 43.0837548 30.86305999 43.0837548 33 44 C32.94735905 40.85288822 32.85212403 37.70836405 32.75 34.5625 C32.73582031 33.68400391 32.72164063 32.80550781 32.70703125 31.90039062 C32.36605342 22.65989132 29.30494121 15.47499561 22.96875 8.72265625 C16.47720958 3.04255838 8.2946045 2.06664965 0 1 C0 0.67 0 0.34 0 0 Z " fill="#2F4C68" transform="translate(275,270)"/>
<path d="M0 0 C0 7.26 0 14.52 0 22 C-4.29 22 -8.58 22 -13 22 C-13 16.72 -13 11.44 -13 6 C-1.125 0 -1.125 0 0 0 Z " fill="#F8F9FA" transform="translate(97,224)"/>
<path d="M0 0 C0.33 0 0.66 0 1 0 C1.14406256 4.96211222 1.28641317 9.92426967 1.42724609 14.88647461 C1.47528953 16.57105808 1.52378328 18.25562877 1.57275391 19.94018555 C1.64346692 22.37545522 1.7125065 24.81076777 1.78125 27.24609375 C1.80312378 27.98709824 1.82499756 28.72810272 1.84753418 29.49156189 C1.9914448 34.6674581 2 39.81717706 2 45 C11.24 45 20.48 45 30 45 C30 45.66 30 46.32 30 47 C20.76 47 11.52 47 2 47 C2 59.87 2 72.74 2 86 C0.02 84.68 -1.96 83.36 -4 82 C-6.22602615 81.23060319 -6.22602615 81.23060319 -8 81 C-8 80.34 -8 79.68 -8 79 C-2.125 79.875 -2.125 79.875 -1 81 C-0.67 54.27 -0.34 27.54 0 0 Z " fill="#486279" transform="translate(75,221)"/>
<path d="M0 0 C0.33 0 0.66 0 1 0 C1 1.65 1 3.3 1 5 C1.66 5.33 2.32 5.66 3 6 C2.34 6 1.68 6 1 6 C1 10.95 1 15.9 1 21 C2.98 21.66 4.96 22.32 7 23 C7.66 23.33 8.32 23.66 9 24 C9 27.63 9 31.26 9 35 C6.36 34.67 3.72 34.34 1 34 C1 42.25 1 50.5 1 59 C1.66 59.33 2.32 59.66 3 60 C2.34 60 1.68 60 1 60 C1.11397544 62.43847451 1.24070974 64.87513174 1.375 67.3125 C1.4059375 68.00279297 1.436875 68.69308594 1.46875 69.40429688 C1.68124919 73.06990789 1.91933861 74.87900792 4 78 C1.69 78.99 -0.62 79.98 -3 81 C-3.66 80.34 -4.32 79.68 -5 79 C-2.525 78.505 -2.525 78.505 0 78 C0 52.26 0 26.52 0 0 Z " fill="#103251" transform="translate(171,102)"/>
<path d="M0 0 C0.33 0 0.66 0 1 0 C1 1.65 1 3.3 1 5 C2.423125 5.4640625 2.423125 5.4640625 3.875 5.9375 C7 7 7 7 9 8 C9.33 6.68 9.66 5.36 10 4 C10 11.59 10 19.18 10 27 C9.67 26.01 9.34 25.02 9 24 C8.236875 23.855625 7.47375 23.71125 6.6875 23.5625 C4 23 4 23 1 22 C1 25.3 1 28.6 1 32 C0.67 32 0.34 32 0 32 C0 21.44 0 10.88 0 0 Z " fill="#05294A" transform="translate(188,109)"/>
<path d="M0 0 C0 18.15 0 36.3 0 55 C-0.66 55 -1.32 55 -2 55 C-2 37.84 -2 20.68 -2 3 C-5.3 4.32 -8.6 5.64 -12 7 C-12.66 7 -13.32 7 -14 7 C-14 22.84 -14 38.68 -14 55 C-14.33 55 -14.66 55 -15 55 C-15.33 38.83 -15.66 22.66 -16 6 C-2 0 -2 0 0 0 Z " fill="#506980" transform="translate(171,191)"/>
<path d="M0 0 C0.33 0 0.66 0 1 0 C1.00257813 0.61488281 1.00515625 1.22976562 1.0078125 1.86328125 C1.04648438 2.67152344 1.08515625 3.47976562 1.125 4.3125 C1.14820313 5.11300781 1.17140625 5.91351563 1.1953125 6.73828125 C1.46085938 7.48464844 1.72640625 8.23101562 2 9 C2.9796875 9.3609375 3.959375 9.721875 4.96875 10.09375 C8 12 8 12 8.67919922 14.29174805 C9.04263351 17.2623723 9.24328968 20.19767565 9.375 23.1875 C9.47748047 24.74114258 9.47748047 24.74114258 9.58203125 26.32617188 C9.74703189 28.88368182 9.88525641 31.43982324 10 34 C9.34 34 8.68 34 8 34 C8.14131533 37.91684296 8.28890974 41.83342681 8.4375 45.75 C8.47681641 46.84183594 8.51613281 47.93367188 8.55664062 49.05859375 C8.83879429 56.39458894 9.32632614 63.68960535 10 71 C9.34 71 8.68 71 8 71 C8.14131533 74.91684296 8.28890974 78.83342681 8.4375 82.75 C8.47681641 83.84183594 8.51613281 84.93367188 8.55664062 86.05859375 C8.83879429 93.39458894 9.32632614 100.68960535 10 108 C9.34 108 8.68 108 8 108 C7.505 108.99 7.505 108.99 7 110 C7 77.99 7 45.98 7 13 C4.03 12.01 1.06 11.02 -2 10 C-3.67363977 9.35103764 -5.34461042 8.69419563 -7 8 C-6.01 7.34 -5.02 6.68 -4 6 C-2.68 6.66 -1.36 7.32 0 8 C0 5.36 0 2.72 0 0 Z " fill="#40575F" transform="translate(237,136)"/>
<path d="M0 0 C0.97582031 0.11085938 1.95164062 0.22171875 2.95703125 0.3359375 C3.69308594 0.43132812 4.42914063 0.52671875 5.1875 0.625 C5.1875 0.955 5.1875 1.285 5.1875 1.625 C4.17042969 1.64626953 4.17042969 1.64626953 3.1328125 1.66796875 C-6.11064861 2.14166413 -13.31224894 4.58136261 -19.75 11.4375 C-23.89063747 16.6425938 -26.67825205 22.65770573 -26.515625 29.4609375 C-24.90155591 34.42868348 -20.48482554 38.06925622 -16.8125 41.625 C-17.4725 42.285 -18.1325 42.945 -18.8125 43.625 C-19.42996094 42.8309375 -20.04742187 42.036875 -20.68359375 41.21875 C-25.21246437 35.51485234 -25.21246437 35.51485234 -31.19921875 31.578125 C-33.88414531 31.33446674 -35.34445094 31.51239112 -37.8125 32.625 C-40.90798014 35.33289915 -43.39562416 38.30591165 -45.8125 41.625 C-46.8025 41.295 -47.7925 40.965 -48.8125 40.625 C-48.8125 35.675 -48.8125 30.725 -48.8125 25.625 C-48.4825 25.625 -48.1525 25.625 -47.8125 25.625 C-47.4825 29.915 -47.1525 34.205 -46.8125 38.625 C-46.090625 37.696875 -45.36875 36.76875 -44.625 35.8125 C-42.26818147 33.01996712 -40.22825473 31.08889488 -36.8125 29.625 C-33 29.4375 -33 29.4375 -29.8125 29.625 C-29.67714844 28.87476563 -29.54179687 28.12453125 -29.40234375 27.3515625 C-27.32591691 17.47920972 -23.64439073 9.96025461 -15.1875 4.125 C-10.01229226 0.91151361 -6.15263961 -0.74128188 0 0 Z " fill="#3F5A73" transform="translate(277.8125,270.375)"/>
<path d="M0 0 C-0.01160156 0.85464844 -0.02320313 1.70929688 -0.03515625 2.58984375 C-0.04417969 3.69457031 -0.05320313 4.79929688 -0.0625 5.9375 C-0.07410156 7.03964844 -0.08570313 8.14179688 -0.09765625 9.27734375 C-0.31262571 11.91447634 -0.31262571 11.91447634 1 13 C1.14115161 15.67058851 1.04247107 18.32432238 1 21 C0.67 21 0.34 21 0 21 C-0.33 19.35 -0.66 17.7 -1 16 C-1.99 16.66 -2.98 17.32 -4 18 C-8.81033104 15.45335415 -12.32442148 13.00972202 -16 9 C-15.24074219 8.51789063 -14.48148438 8.03578125 -13.69921875 7.5390625 C-12.70535156 6.90742188 -11.71148437 6.27578125 -10.6875 5.625 C-9.70136719 4.99851563 -8.71523437 4.37203125 -7.69921875 3.7265625 C-1.87330317 0 -1.87330317 0 0 0 Z " fill="#2E474C" transform="translate(205,171)"/>
<path d="M0 0 C1.47982716 0.8815472 2.94222051 1.79388451 4.375 2.75 C5.73625 3.5853125 5.73625 3.5853125 7.125 4.4375 C12.73881765 10.20725703 17.19897494 17.99732344 17.5 26.125 C17.45875 26.99125 17.4175 27.8575 17.375 28.75 C16.385 29.245 16.385 29.245 15.375 29.75 C15.22804687 28.8321875 15.08109375 27.914375 14.9296875 26.96875 C13.20353505 17.52451362 10.87886355 11.91607378 3.875 5.4375 C-1.8172444 1.59523503 -6.17525062 0.18987776 -12.9375 0.25 C-14.06744385 0.25966797 -14.06744385 0.25966797 -15.22021484 0.26953125 C-23.67063786 0.54701328 -28.66868746 3.47591679 -34.5 9.5 C-37.8207582 13.53730231 -39.39990867 17.70962423 -40.625 22.75 C-41.7578125 21.02734375 -41.7578125 21.02734375 -42.625 18.75 C-39.27236577 9.08957457 -32.24808279 2.96051132 -23.3203125 -1.3671875 C-15.97932449 -3.77162705 -6.92785589 -3.38579423 0 0 Z " fill="#35516C" transform="translate(133.625,272.25)"/>
<path d="M0 0 C3.78921974 0.26436417 5.63508885 0.68849049 8.5625 3.1875 C10.29860279 5.19069553 12.00232519 7.20512414 13.6875 9.25 C15.7042322 12.01742194 15.7042322 12.01742194 18 13 C20.07564676 13.19758231 20.07564676 13.19758231 22.375 13.1875 C23.14585938 13.20167969 23.91671875 13.21585937 24.7109375 13.23046875 C27.26258586 12.97356217 28.84644953 12.37999132 31 11 C31.268125 10.2575 31.53625 9.515 31.8125 8.75 C33.57616447 4.66572439 36.15337512 2.21162683 40 0 C43.2131098 -0.85569591 45.78564639 -0.85069039 49 0 C53.21839502 2.44855923 56.00501622 5.99711788 58.9375 9.8125 C60.63628648 11.90613955 61.50103121 12.86006779 64.1171875 13.59375 C66.07310904 13.7886461 68.03692841 13.9001828 70 14 C70.495 14.99 70.495 14.99 71 16 C62.08139535 16.45348837 62.08139535 16.45348837 58 13 C56.10519969 10.70389919 54.30568482 8.36566124 52.55078125 5.9609375 C50.77611827 3.71690521 49.82765732 3.11382321 47.01171875 2.7265625 C42.77126613 2.54126541 40.70428276 2.4557815 37.25 5.125 C36.5075 6.07375 35.765 7.0225 35 8 C29.41934026 15.02304564 29.41934026 15.02304564 26 16 C21.10747629 16.55238171 19.08842884 16.71081067 14.9375 14 C12.58099828 11.76516549 10.53220973 9.29093888 8.4375 6.8125 C5.8824875 3.79758525 3.96214983 1.96052117 0 1 C0 0.67 0 0.34 0 0 Z " fill="#455F78" transform="translate(66,319)"/>
<path d="M0 0 C4.29 1.65 8.58 3.3 13 5 C13 11.93 13 18.86 13 26 C11.02 26.99 11.02 26.99 9 28 C8.67 22.06 8.34 16.12 8 10 C6.02 9.34 4.04 8.68 2 8 C1.34 7.67 0.68 7.34 0 7 C0 4.69 0 2.38 0 0 Z " fill="#E4E7EB" transform="translate(189,107)"/>
<path d="M0 0 C-4.10472716 2.8814641 -8.06664462 5.05564819 -12.7109375 7.015625 C-14.39388916 7.73153809 -14.39388916 7.73153809 -16.11083984 8.46191406 C-18.22159912 9.3470166 -18.22159912 9.3470166 -20.375 10.25 C-24.87125 12.1475 -29.3675 14.045 -34 16 C-34.33 34.81 -34.66 53.62 -35 73 C-35.33 73 -35.66 73 -36 73 C-36 53.53 -36 34.06 -36 14 C-28.53296951 10.26648475 -21.17889193 6.83394871 -13.5 3.625 C-12.4171875 3.16222656 -11.334375 2.69945312 -10.21875 2.22265625 C-9.1875 1.79082031 -8.15625 1.35898438 -7.09375 0.9140625 C-5.69672852 0.3255249 -5.69672852 0.3255249 -4.27148438 -0.27490234 C-2 -1 -2 -1 0 0 Z " fill="#546971" transform="translate(132,139)"/>
<path d="M0 0 C0 14.85 0 29.7 0 45 C-0.66 45 -1.32 45 -2 45 C-2 31.14 -2 17.28 -2 3 C-5.96 4.65 -9.92 6.3 -14 8 C-14.33 7.34 -14.66 6.68 -15 6 C-12.87717331 4.99539469 -10.75166979 3.99644398 -8.625 3 C-7.44164062 2.443125 -6.25828125 1.88625 -5.0390625 1.3125 C-2 0 -2 0 0 0 Z " fill="#3D5972" transform="translate(146,201)"/>
<path d="M0 0 C0.33 0 0.66 0 1 0 C1 16.83 1 33.66 1 51 C0.34 51 -0.32 51 -1 51 C-1 48.36 -1 45.72 -1 43 C-1.66 42.67 -2.32 42.34 -3 42 C-2.67 38.04 -2.34 34.08 -2 30 C-3.32 30.33 -4.64 30.66 -6 31 C-5.35708008 30.46987305 -4.71416016 29.93974609 -4.05175781 29.39355469 C-1.46324915 26.37383326 -1.39467767 24.63930553 -1.171875 20.703125 C-1.09453125 19.49785156 -1.0171875 18.29257813 -0.9375 17.05078125 C-0.875625 15.79652344 -0.81375 14.54226562 -0.75 13.25 C-0.67265625 11.98027344 -0.5953125 10.71054688 -0.515625 9.40234375 C-0.3271417 6.26880894 -0.15594068 3.13529522 0 0 Z " fill="#B9C2C6" transform="translate(207,141)"/>
<path d="M0 0 C3.04819248 1.97357547 5.64589564 4.2326752 8 7 C8 7.66 8 8.32 8 9 C8.66 9 9.32 9 10 9 C10.556875 9.61875 11.11375 10.2375 11.6875 10.875 C14.58753997 13.53990159 17.20771415 14.12485711 21 15 C21 15.33 21 15.66 21 16 C17.69230527 16.40502384 15.07886317 16.65689766 12.15234375 14.875 C8.29765113 11.62180887 5.17463888 7.90027063 2 4 C-1.2251574 2.3874213 -4.51188907 2.41188827 -8 3 C-10.70800597 5.03949126 -10.70800597 5.03949126 -13 8 C-14.21683813 9.26200462 -15.44659691 10.51165021 -16.6875 11.75 C-17.26886719 12.34296875 -17.85023438 12.9359375 -18.44921875 13.546875 C-21.29614431 16.21452313 -23.96538854 16.44064828 -27.82421875 16.43359375 C-31.78036553 15.64520543 -34.29264328 12.84272455 -37 10 C-36.67 9.34 -36.34 8.68 -36 8 C-35.01 9.2065625 -35.01 9.2065625 -34 10.4375 C-30.81450625 13.15844258 -29.13662886 14.055156 -25.046875 14.32421875 C-19.05361438 13.37490457 -14.84637724 6.86687367 -11.26171875 2.41796875 C-8.31299896 -0.89591758 -4.09418136 -0.89872274 0 0 Z " fill="#2C4A66" transform="translate(160,300)"/>
<path d="M0 0 C0 0.33 0 0.66 0 1 C-0.68964844 1.02578125 -1.37929687 1.0515625 -2.08984375 1.078125 C-11.58802019 1.65140314 -18.9816486 3.82985042 -25.49609375 11.0546875 C-32.1977485 19.72332144 -31.77288843 29.47337861 -32 40 C-32.33 39.34 -32.66 38.68 -33 38 C-33.66 37.67 -34.32 37.34 -35 37 C-34.66534334 25.38741399 -33.45641547 15.52371794 -25.171875 6.83203125 C-17.34605817 0.2307577 -10.01935396 -2.16954515 0 0 Z " fill="#435D76" transform="translate(203,271)"/>
<path d="M0 0 C4.95 1.98 4.95 1.98 10 4 C10 17.53 10 31.06 10 45 C9.34 45 8.68 45 8 45 C7.505 27.675 7.505 27.675 7 10 C5.02 9.34 3.04 8.68 1 8 C0.34 7.67 -0.32 7.34 -1 7 C-0.67 4.69 -0.34 2.38 0 0 Z " fill="#D8DEE2" transform="translate(173,100)"/>
<path d="M0 0 C0 7.92 0 15.84 0 24 C1.98 24 3.96 24 6 24 C6 24.33 6 24.66 6 25 C-0.93 25 -7.86 25 -15 25 C-15 24.67 -15 24.34 -15 24 C-10.71 24 -6.42 24 -2 24 C-2.33 17.07 -2.66 10.14 -3 3 C-6.96 4.65 -10.92 6.3 -15 8 C-15.33 7.34 -15.66 6.68 -16 6 C-13.7101766 4.9955866 -11.4183401 3.99632388 -9.125 3 C-8.14853516 2.57074219 -8.14853516 2.57074219 -7.15234375 2.1328125 C-2.2265625 0 -2.2265625 0 0 0 Z " fill="#304E69" transform="translate(99,222)"/>
<path d="M0 0 C5.75 0.875 5.75 0.875 8 2 C8 5.63 8 9.26 8 13 C1.125 11.125 1.125 11.125 0 10 C-0.07205511 8.31391034 -0.08386068 6.62499341 -0.0625 4.9375 C-0.05347656 4.01839844 -0.04445312 3.09929687 -0.03515625 2.15234375 C-0.02355469 1.44207031 -0.01195312 0.73179688 0 0 Z " fill="#E5E9EC" transform="translate(172,124)"/>
<path d="M0 0 C0 10.89 0 21.78 0 33 C-2.06257104 28.87485791 -2.23756602 27.18199862 -2.1953125 22.703125 C-2.18886719 21.49785156 -2.18242188 20.29257813 -2.17578125 19.05078125 C-2.15902344 17.79652344 -2.14226562 16.54226562 -2.125 15.25 C-2.11597656 13.98027344 -2.10695313 12.71054688 -2.09765625 11.40234375 C-2.07409087 8.26814871 -2.03822013 5.13405059 -2 2 C-7.445 4.475 -7.445 4.475 -13 7 C-13.66 6.34 -14.32 5.68 -15 5 C-13.06532058 4.16013916 -11.12714871 3.32831973 -9.1875 2.5 C-8.10855469 2.0359375 -7.02960938 1.571875 -5.91796875 1.09375 C-3 0 -3 0 0 0 Z " fill="#476179" transform="translate(122,213)"/>
<path d="M0 0 C6.875 1.875 6.875 1.875 8 3 C8.07179964 4.51928038 8.08392007 6.04167482 8.0625 7.5625 C8.05347656 8.38878906 8.04445312 9.21507812 8.03515625 10.06640625 C8.02355469 10.70449219 8.01195312 11.34257812 8 12 C2.25 11.125 2.25 11.125 0 10 C0 6.7 0 3.4 0 0 Z " fill="#E6EAED" transform="translate(172,151)"/>
<path d="M0 0 C0.33 0 0.66 0 1 0 C1 6.27 1 12.54 1 19 C2.98 19.66 4.96 20.32 7 21 C8.58831292 21.62963321 10.16955347 22.27748161 11.7421875 22.9453125 C12.58007812 23.29980469 13.41796875 23.65429688 14.28125 24.01953125 C15.1371875 24.38433594 15.993125 24.74914062 16.875 25.125 C17.75414062 25.49753906 18.63328125 25.87007812 19.5390625 26.25390625 C21.69358227 27.16723528 23.84719024 28.08264932 26 29 C25.01 29.66 24.02 30.32 23 31 C20.73168945 30.40087891 20.73168945 30.40087891 18.11328125 29.2265625 C17.17548828 28.8140625 16.23769531 28.4015625 15.27148438 27.9765625 C14.29501953 27.53054687 13.31855469 27.08453125 12.3125 26.625 C11.32443359 26.18671875 10.33636719 25.7484375 9.31835938 25.296875 C6.87313633 24.2101092 4.43436994 23.11081366 2 22 C2 21.34 2 20.68 2 20 C1.34 20 0.68 20 0 20 C0 13.4 0 6.8 0 0 Z " fill="#596E78" transform="translate(203,111)"/>
<path d="M0 0 C1.46373047 0.16628906 1.46373047 0.16628906 2.95703125 0.3359375 C3.69308594 0.43132812 4.42914063 0.52671875 5.1875 0.625 C5.1875 0.955 5.1875 1.285 5.1875 1.625 C4.42566406 1.63917969 3.66382812 1.65335937 2.87890625 1.66796875 C-6.70413908 2.11063127 -13.0111363 4.39199747 -19.6875 11.375 C-23.0082582 15.41230231 -24.58740867 19.58462423 -25.8125 24.625 C-26.9453125 22.90234375 -26.9453125 22.90234375 -27.8125 20.625 C-24.43942092 10.90566388 -17.37676534 4.8320512 -8.421875 0.45703125 C-5.35028929 -0.52238156 -3.18763152 -0.38405199 0 0 Z " fill="#47617A" transform="translate(118.8125,270.375)"/>
<path d="M0 0 C0.99 0 1.98 0 3 0 C3 6.93 3 13.86 3 21 C2.01 21.33 1.02 21.66 0 22 C0 14.74 0 7.48 0 0 Z " fill="#F1F3F4" transform="translate(199,112)"/>
<path d="M0 0 C1.98 0.99 1.98 0.99 4 2 C3.01 2.495 3.01 2.495 2 3 C1.67 19.17 1.34 35.34 1 52 C0.67 52 0.34 52 0 52 C0 34.84 0 17.68 0 0 Z " fill="#32494F" transform="translate(208,140)"/>
<path d="M0 0 C1.9140625 2.09375 1.9140625 2.09375 3.625 4.5 C6.61562293 8.66792698 8.41172572 10.73080097 13.6875 11.625 C14.780625 11.74875 15.87375 11.8725 17 12 C14 14 14 14 11.625 13.9375 C7.494664 12.46238 5.21991827 9.39000302 2.375 6.1484375 C-1.54746689 1.83474487 -1.54746689 1.83474487 -6.9375 0.0625 C-8.4534375 0.0315625 -8.4534375 0.0315625 -10 0 C-10 -0.33 -10 -0.66 -10 -1 C-5.90094795 -2.17115773 -3.78708637 -1.93703959 0 0 Z " fill="#48627A" transform="translate(251,321)"/>
<path d="M0 0 C0 0.33 0 0.66 0 1 C-1.01707031 1.02126953 -1.01707031 1.02126953 -2.0546875 1.04296875 C-11.53195472 1.52864588 -18.90415486 4.61373937 -26 11 C-26 10.01 -26 9.02 -26 8 C-18.25199958 0.27212426 -10.54391536 -1.58254064 0 0 Z " fill="#536B82" transform="translate(283,271)"/>
<path d="M0 0 C4.75 0.875 4.75 0.875 7 2 C7 3.32 7 4.64 7 6 C2.92857143 9 2.92857143 9 0 9 C0 6.03 0 3.06 0 0 Z " fill="#F4F5F6" transform="translate(189,131)"/>
<path d="M0 0 C0 0.33 0 0.66 0 1 C-0.969375 1.12375 -1.93875 1.2475 -2.9375 1.375 C-7.99947904 2.7508726 -10.61585895 6.74677068 -13.7890625 10.6875 C-16.11030404 13.115371 -17.82424715 14.01941666 -21 15 C-21 14.34 -21 13.68 -21 13 C-20.13375 12.46375 -19.2675 11.9275 -18.375 11.375 C-14.8059276 9.15274737 -12.80375318 6.26550618 -10.4921875 2.8046875 C-7.31922901 -1.03276491 -4.64837352 -1.29121487 0 0 Z " fill="#405B74" transform="translate(202,301)"/>
<path d="M0 0 C4.84819314 0.09894272 7.17960274 0.75916893 10.625 4.25 C11.75813568 5.49262969 12.8835645 6.74234473 14 8 C14.928125 8.9075 15.85625 9.815 16.8125 10.75 C19 13 19 13 21 16 C16.55265005 14.61898081 14.53689083 12.64191814 11.625 9.0625 C7.97039321 4.82021775 5.34541854 2.59225233 0 1 C0 0.67 0 0.34 0 0 Z " fill="#36526D" transform="translate(199,300)"/>
<path d="M0 0 C0.33 0 0.66 0 1 0 C1.33 4.29 1.66 8.58 2 13 C2.763125 12.05125 3.52625 11.1025 4.3125 10.125 C6.15534046 7.83390105 7.46837417 6.68775056 10 5 C10.99 5.33 11.98 5.66 13 6 C12.45730469 6.47050781 11.91460937 6.94101562 11.35546875 7.42578125 C10.64003906 8.04839844 9.92460937 8.67101562 9.1875 9.3125 C8.47980469 9.92738281 7.77210938 10.54226563 7.04296875 11.17578125 C5.29863261 12.73334335 3.63221959 14.32658875 2 16 C1.34 15.67 0.68 15.34 0 15 C0 10.05 0 5.1 0 0 Z " fill="#38546E" transform="translate(229,296)"/>
<path d="M0 0 C3.10039543 1.75494081 5.48825667 3.48825667 8 6 C7.67 6.99 7.34 7.98 7 9 C5 7 3 5 1 3 C-5.3149985 2.58546287 -5.3149985 2.58546287 -11 5 C-11.33 4.34 -11.66 3.68 -12 3 C-7.89688443 0.01591595 -5.04187047 -0.61917707 0 0 Z " fill="#405B74" transform="translate(115,300)"/>
<path d="M0 0 C0.33 0 0.66 0 1 0 C1 5.61 1 11.22 1 17 C1.66 17 2.32 17 3 17 C1.25 20.875 1.25 20.875 -1 22 C-3.3329866 22.04022391 -5.66706666 22.04320247 -8 22 C-5.66785852 20.79371992 -3.50357861 19.8345262 -1 19 C-0.67 12.73 -0.34 6.46 0 0 Z " fill="#1C3C5A" transform="translate(228,294)"/>
<path d="M0 0 C3.6897474 0.25742424 5.61351816 0.68115248 8.5 3.0625 C11.50364419 6.59178192 14.28768474 10.24376959 17 14 C12.45128271 12.13593768 10.14064453 8.82035195 7.09765625 5.09375 C4.83683881 2.83714265 3.01592977 1.96509753 0 1 C0 0.67 0 0.34 0 0 Z " fill="#37546E" transform="translate(66,319)"/>
<path d="M0 0 C1.8871875 0.061875 1.8871875 0.061875 3.8125 0.125 C3.8125 0.455 3.8125 0.785 3.8125 1.125 C2.26369141 1.20041016 2.26369141 1.20041016 0.68359375 1.27734375 C-3.92526534 2.28654902 -6.0755891 4.30910702 -9.125 7.6875 C-9.61806641 8.20763672 -10.11113281 8.72777344 -10.61914062 9.26367188 C-11.82282929 10.53747833 -13.00722352 11.82947049 -14.1875 13.125 C-14.8475 12.795 -15.5075 12.465 -16.1875 12.125 C-14.75415422 10.49633456 -13.31567021 8.87219006 -11.875 7.25 C-11.07449219 6.34507812 -10.27398437 5.44015625 -9.44921875 4.5078125 C-6.35403032 1.24690586 -4.45325511 -0.14600836 0 0 Z " fill="#DFE3E8" transform="translate(156.1875,301.875)"/>
<path d="M0 0 C0 2.64 0 5.28 0 8 C-1.98 8.99 -1.98 8.99 -4 10 C-4.29296875 3.9453125 -4.29296875 3.9453125 -4 2 C-1 0 -1 0 0 0 Z " fill="#E5E8EA" transform="translate(112,197)"/>
<path d="M0 0 C0.66 0.33 1.32 0.66 2 1 C-2.29 5.29 -6.58 9.58 -11 14 C-11 9.89707103 -9.37198901 8.8472941 -6.625 5.875 C-5.40683594 4.54082031 -5.40683594 4.54082031 -4.1640625 3.1796875 C-2 1 -2 1 0 0 Z " fill="#1C3C5A" transform="translate(155,97)"/>
<path d="M0 0 C5.73662874 -0.4589303 8.50376662 0.42345072 13 4 C14.875 5.75 14.875 5.75 16 7 C15.67 7.99 15.34 8.98 15 10 C14.38125 9.071875 13.7625 8.14375 13.125 7.1875 C9.68726647 2.97253976 5.12940047 2.1354401 0 1 C0 0.67 0 0.34 0 0 Z " fill="#3E5973" transform="translate(285,300)"/>
<path d="M0 0 C-0.99 0.495 -0.99 0.495 -2 1 C-6.20652198 3.80434799 -9.51503815 7.35938229 -13 11 C-13.66 10.67 -14.32 10.34 -15 10 C-13.54540569 8.35086118 -12.08620743 6.70578218 -10.625 5.0625 C-9.81289062 4.14597656 -9.00078125 3.22945313 -8.1640625 2.28515625 C-5.12217155 -0.92694881 -4.11032937 -1.23309881 0 0 Z " fill="#E2E6EA" transform="translate(243,322)"/>
<path d="M0 0 C0.99 0.33 1.98 0.66 3 1 C-1.90924297 4.92739438 -4.73920552 5.43177893 -11 5 C-11 4.01 -11 3.02 -11 2 C-10.06027344 2.03480469 -10.06027344 2.03480469 -9.1015625 2.0703125 C-7.87566406 2.09738281 -7.87566406 2.09738281 -6.625 2.125 C-5.40683594 2.15980469 -5.40683594 2.15980469 -4.1640625 2.1953125 C-1.78657757 2.21370051 -1.78657757 2.21370051 0 0 Z " fill="#4C657D" transform="translate(95,330)"/>
<path d="M0 0 C0.66 0.33 1.32 0.66 2 1 C-0.16084674 4.2412701 -1.53557065 4.78505732 -5.046875 6.171875 C-8.19559139 7.50693075 -11.05929274 9.25958141 -14 11 C-14 10.34 -14 9.68 -14 9 C-11.73786371 7.33735936 -9.49191091 5.81092599 -7.125 4.3125 C-6.14853516 3.66958008 -6.14853516 3.66958008 -5.15234375 3.01367188 C-3.47666358 1.94089107 -1.74134349 0.96254119 0 0 Z " fill="#AFB9BD" transform="translate(199,158)"/>
<path d="M0 0 C0.33 0 0.66 0 1 0 C1.07347656 0.92232422 1.07347656 0.92232422 1.1484375 1.86328125 C1.22320312 2.67152344 1.29796875 3.47976562 1.375 4.3125 C1.44460937 5.11300781 1.51421875 5.91351563 1.5859375 6.73828125 C1.89564426 9.27224441 1.89564426 9.27224441 4 12 C0.535 13.485 0.535 13.485 -3 15 C-3.66 14.34 -4.32 13.68 -5 13 C-3.35 12.67 -1.7 12.34 0 12 C0 8.04 0 4.08 0 0 Z " fill="#2B4965" transform="translate(171,168)"/>
<path d="M0 0 C0 2.64 0 5.28 0 8 C-0.33 8 -0.66 8 -1 8 C-1.33 6.35 -1.66 4.7 -2 3 C-2.99 3.66 -3.98 4.32 -5 5 C-5.66 4.67 -6.32 4.34 -7 4 C-7 3.34 -7 2.68 -7 2 C-4 0 -4 0 0 0 Z " fill="#808F96" transform="translate(206,184)"/>
<path d="M0 0 C0.66 0.33 1.32 0.66 2 1 C-0.97 3.97 -3.94 6.94 -7 10 C-7.66 9.67 -8.32 9.34 -9 9 C-7.87895467 7.68412059 -6.75303035 6.37239647 -5.625 5.0625 C-4.99851563 4.33160156 -4.37203125 3.60070312 -3.7265625 2.84765625 C-2 1 -2 1 0 0 Z " fill="#E0E4E8" transform="translate(195,321)"/>
<path d="M0 0 C0.66 0.33 1.32 0.66 2 1 C-0.97 3.64 -3.94 6.28 -7 9 C-7.66 8.34 -8.32 7.68 -9 7 C-7.87720538 6.01830524 -6.75168527 5.03972702 -5.625 4.0625 C-4.68527344 3.24458984 -4.68527344 3.24458984 -3.7265625 2.41015625 C-2 1 -2 1 0 0 Z " fill="#3C5772" transform="translate(185,273)"/>
<path d="M0 0 C1.8125 2.125 1.8125 2.125 3 4 C2.01 4 1.02 4 0 4 C-0.4125 3.525625 -0.825 3.05125 -1.25 2.5625 C-3.87524834 0.21852827 -6.58502942 0.32216704 -10 0 C-10 -0.33 -10 -0.66 -10 -1 C-5.96227228 -2.15363649 -3.69751521 -2.04336367 0 0 Z " fill="#576F86" transform="translate(251,321)"/>
<path d="M0 0 C0.66 0.33 1.32 0.66 2 1 C-1.16952847 4.26008643 -4.39937989 7.22237877 -8 10 C-6.5682479 4.98886765 -4.01554307 3.05530451 0 0 Z " fill="#38536E" transform="translate(105,320)"/>
<path d="M0 0 C0.66 0.33 1.32 0.66 2 1 C-0.97 3.97 -3.94 6.94 -7 10 C-7 6.04435836 -5.59478606 4.89133304 -3 2 C-2.01 1.34 -1.02 0.68 0 0 Z " fill="#DADFE4" transform="translate(329,302)"/>
<path d="M0 0 C0.66 0.33 1.32 0.66 2 1 C-0.97 3.97 -3.94 6.94 -7 10 C-7 6.04435836 -5.59478606 4.89133304 -3 2 C-2.01 1.34 -1.02 0.68 0 0 Z " fill="#E3E6EA" transform="translate(106,321)"/>
<path d="M0 0 C0.33 0 0.66 0 1 0 C1.04898438 0.91523438 1.09796875 1.83046875 1.1484375 2.7734375 C1.22320312 3.96195312 1.29796875 5.15046875 1.375 6.375 C1.44460937 7.55835938 1.51421875 8.74171875 1.5859375 9.9609375 C1.70217346 13.10562319 1.70217346 13.10562319 4 15 C3.01 15.495 3.01 15.495 2 16 C1.34 15.67 0.68 15.34 0 15 C0 10.05 0 5.1 0 0 Z " fill="#697E92" transform="translate(229,296)"/>
<path d="M0 0 C2.09350689 3.4019487 2.17942163 6.05272412 2 10 C1.01 10.495 1.01 10.495 0 11 C-0.19491452 9.54263913 -0.38069358 8.08405407 -0.5625 6.625 C-0.66691406 5.81289063 -0.77132812 5.00078125 -0.87890625 4.1640625 C-1 2 -1 2 0 0 Z " fill="#506880" transform="translate(149,291)"/>
<path d="M0 0 C-0.33 1.32 -0.66 2.64 -1 4 C-2.32 4.33 -3.64 4.66 -5 5 C-5.33 3.68 -5.66 2.36 -6 1 C-4 0 -4 0 0 0 Z " fill="#3C535A" transform="translate(129,167)"/>
<path d="M0 0 C-0.33 1.32 -0.66 2.64 -1 4 C-2.32 4.33 -3.64 4.66 -5 5 C-5.33 3.68 -5.66 2.36 -6 1 C-4 0 -4 0 0 0 Z " fill="#3C545B" transform="translate(129,148)"/>
</svg>
